# MagicaVoxel @ Ephtracy

# group
o 

# material
mtllib Head.mtl
usemtl palette

# normals
vn -1 0 0
vn 1 0 0
vn 0 0 1
vn 0 0 -1
vn 0 -1 0
vn 0 1 0

# texcoords
vt 0.0175781 0.5
vt 0.771484 0.5
vt 0.982422 0.5
vt 0.990234 0.5
vt 0.994141 0.5

# verts
v -0.7 3 0.3
v -0.7 3 0.2
v -0.7 3 0
v -0.7 3.1 0.3
v -0.7 3.1 0.2
v -0.7 3.1 0
v -0.7 3.3 0.3
v -0.7 3.3 0.2
v -0.7 3.7 0.3
v -0.7 3.7 0
v 0.2 3 0.3
v 0.2 3 0.2
v 0.2 3 0
v 0.2 3.1 0.2
v 0.2 3.1 0
v 0.2 3.2 0.1
v 0.2 3.2 0
v 0.2 3.4 0.3
v 0.2 3.4 0.2
v 0.2 3.4 0.1
v 0.2 3.4 0
v 0.2 3.6 0.3
v 0.2 3.6 0.2
v 0.2 3.7 0.3
v 0.2 3.7 0
v -0.7 3 0.3
v -0.7 3.1 0.3
v -0.7 3.3 0.3
v -0.7 3.7 0.3
v -0.6 3.2 0.3
v -0.6 3.3 0.3
v -0.6 3.6 0.3
v -0.5 3.1 0.3
v -0.5 3.2 0.3
v -0.5 3.6 0.3
v -0.5 3.7 0.3
v -0.4 3.3 0.3
v -0.4 3.5 0.3
v -0.4 3.6 0.3
v -0.4 3.7 0.3
v -0.3 3.3 0.3
v -0.3 3.5 0.3
v -0.2 3 0.3
v -0.2 3.1 0.3
v -0.2 3.3 0.3
v -0.2 3.5 0.3
v -0.1 3 0.3
v -0.1 3.1 0.3
v -0.1 3.2 0.3
v -0.1 3.3 0.3
v -0.1 3.5 0.3
v 0.1 3.1 0.3
v 0.1 3.2 0.3
v 0.1 3.4 0.3
v 0.1 3.6 0.3
v 0.2 3 0.3
v 0.2 3.4 0.3
v 0.2 3.6 0.3
v 0.2 3.7 0.3
v -0.7 3 0
v -0.7 3.1 0
v -0.7 3.7 0
v -0.6 3 0
v -0.6 3.1 0
v -0.5 3.1 0
v -0.5 3.2 0
v -0.4 3.1 0
v -0.4 3.2 0
v -0.4 3.4 0
v -0.3 3.2 0
v -0.3 3.4 0
v -0.3 3.6 0
v -0.2 3.4 0
v -0.2 3.6 0
v 0 3 0
v 0 3.1 0
v 0 3.2 0
v 0 3.3 0
v 0.1 3.3 0
v 0.1 3.4 0
v 0.2 3 0
v 0.2 3.1 0
v 0.2 3.2 0
v 0.2 3.4 0
v 0.2 3.7 0
v -0.7 3 0.3
v -0.2 3 0.3
v -0.1 3 0.3
v 0.2 3 0.3
v -0.7 3 0.2
v -0.5 3 0.2
v -0.2 3 0.2
v -0.1 3 0.2
v 0.1 3 0.2
v 0.2 3 0.2
v -0.6 3 0.1
v -0.5 3 0.1
v 0 3 0.1
v 0.1 3 0.1
v -0.7 3 0
v -0.6 3 0
v 0 3 0
v 0.2 3 0
v -0.7 3.7 0.3
v -0.5 3.7 0.3
v -0.4 3.7 0.3
v 0.2 3.7 0.3
v -0.5 3.7 0.2
v -0.4 3.7 0.2
v -0.2 3.7 0.2
v -0.4 3.7 0.1
v -0.2 3.7 0.1
v -0.7 3.7 0
v 0.2 3.7 0

# faces
f 4/2/1 2/2/1 1/2/1
f 5/3/1 3/3/1 2/3/1
f 5/2/1 2/2/1 4/2/1
f 6/3/1 3/3/1 5/3/1
f 7/3/1 5/3/1 4/3/1
f 8/2/1 6/2/1 5/2/1
f 8/3/1 5/3/1 7/3/1
f 9/2/1 8/2/1 7/2/1
f 10/2/1 6/2/1 8/2/1
f 10/2/1 8/2/1 9/2/1
f 11/2/2 12/2/2 14/2/2
f 12/3/2 13/3/2 14/3/2
f 14/3/2 13/3/2 15/3/2
f 14/2/2 15/2/2 16/2/2
f 16/2/2 15/2/2 17/2/2
f 11/2/2 14/2/2 18/2/2
f 14/2/2 16/2/2 18/2/2
f 18/2/2 16/2/2 19/2/2
f 16/3/2 17/3/2 20/3/2
f 19/2/2 16/2/2 20/2/2
f 20/3/2 17/3/2 21/3/2
f 18/3/2 19/3/2 22/3/2
f 19/2/2 20/2/2 23/2/2
f 22/3/2 19/3/2 23/3/2
f 20/2/2 21/2/2 23/2/2
f 22/2/2 23/2/2 24/2/2
f 23/2/2 21/2/2 25/2/2
f 24/2/2 23/2/2 25/2/2
f 30/3/3 28/3/3 27/3/3
f 31/2/3 29/2/3 28/2/3
f 31/3/3 28/3/3 30/3/3
f 32/2/3 29/2/3 31/2/3
f 33/2/3 27/2/3 26/2/3
f 33/3/3 30/3/3 27/3/3
f 34/4/3 32/4/3 31/4/3
f 34/3/3 30/3/3 33/3/3
f 34/4/3 31/4/3 30/4/3
f 35/2/3 29/2/3 32/2/3
f 35/4/3 32/4/3 34/4/3
f 36/2/3 29/2/3 35/2/3
f 37/4/3 35/4/3 34/4/3
f 38/4/3 35/4/3 37/4/3
f 39/3/3 36/3/3 35/3/3
f 39/4/3 35/4/3 38/4/3
f 40/3/3 36/3/3 39/3/3
f 41/1/3 38/1/3 37/1/3
f 41/4/3 37/4/3 34/4/3
f 42/4/3 39/4/3 38/4/3
f 42/1/3 38/1/3 41/1/3
f 43/2/3 34/2/3 33/2/3
f 43/2/3 33/2/3 26/2/3
f 44/2/3 34/2/3 43/2/3
f 45/4/3 42/4/3 41/4/3
f 45/4/3 41/4/3 34/4/3
f 46/4/3 39/4/3 42/4/3
f 46/4/3 42/4/3 45/4/3
f 47/3/3 44/3/3 43/3/3
f 48/2/3 34/2/3 44/2/3
f 48/3/3 44/3/3 47/3/3
f 49/4/3 45/4/3 34/4/3
f 49/2/3 34/2/3 48/2/3
f 50/1/3 46/1/3 45/1/3
f 50/4/3 45/4/3 49/4/3
f 51/4/3 39/4/3 46/4/3
f 51/1/3 46/1/3 50/1/3
f 52/2/3 48/2/3 47/2/3
f 52/3/3 49/3/3 48/3/3
f 53/4/3 50/4/3 49/4/3
f 53/3/3 49/3/3 52/3/3
f 53/4/3 51/4/3 50/4/3
f 54/4/3 51/4/3 53/4/3
f 55/4/3 39/4/3 51/4/3
f 55/4/3 51/4/3 54/4/3
f 55/2/3 40/2/3 39/2/3
f 56/2/3 54/2/3 53/2/3
f 56/2/3 53/2/3 52/2/3
f 56/2/3 52/2/3 47/2/3
f 57/3/3 55/3/3 54/3/3
f 57/2/3 54/2/3 56/2/3
f 58/2/3 40/2/3 55/2/3
f 58/3/3 55/3/3 57/3/3
f 59/2/3 40/2/3 58/2/3
f 60/3/4 61/3/4 63/3/4
f 61/2/4 62/2/4 64/2/4
f 63/3/4 61/3/4 64/3/4
f 63/2/4 64/2/4 65/2/4
f 64/2/4 62/2/4 65/2/4
f 65/2/4 62/2/4 66/2/4
f 63/2/4 65/2/4 67/2/4
f 65/3/4 66/3/4 67/3/4
f 66/2/4 62/2/4 68/2/4
f 67/3/4 66/3/4 68/3/4
f 68/2/4 62/2/4 69/2/4
f 67/2/4 68/2/4 70/2/4
f 68/3/4 69/3/4 70/3/4
f 69/2/4 62/2/4 71/2/4
f 70/3/4 69/3/4 71/3/4
f 71/2/4 62/2/4 72/2/4
f 70/2/4 71/2/4 73/2/4
f 71/3/4 72/3/4 73/3/4
f 72/2/4 62/2/4 74/2/4
f 73/3/4 72/3/4 74/3/4
f 63/2/4 67/2/4 75/2/4
f 67/2/4 70/2/4 75/2/4
f 73/2/4 74/2/4 75/2/4
f 70/2/4 73/2/4 75/2/4
f 75/2/4 74/2/4 76/2/4
f 76/2/4 74/2/4 77/2/4
f 77/2/4 74/2/4 78/2/4
f 77/3/4 78/3/4 79/3/4
f 78/2/4 74/2/4 79/2/4
f 79/2/4 74/2/4 80/2/4
f 75/3/4 76/3/4 81/3/4
f 76/2/4 77/2/4 82/2/4
f 81/3/4 76/3/4 82/3/4
f 77/3/4 79/3/4 83/3/4
f 82/2/4 77/2/4 83/2/4
f 79/3/4 80/3/4 83/3/4
f 80/2/4 74/2/4 84/2/4
f 83/3/4 80/3/4 84/3/4
f 74/2/4 62/2/4 85/2/4
f 84/2/4 74/2/4 85/2/4
f 90/2/5 87/2/5 86/2/5
f 91/2/5 87/2/5 90/2/5
f 92/3/5 88/3/5 87/3/5
f 92/2/5 87/2/5 91/2/5
f 93/2/5 89/2/5 88/2/5
f 93/3/5 88/3/5 92/3/5
f 94/2/5 89/2/5 93/2/5
f 95/2/5 89/2/5 94/2/5
f 96/3/5 91/3/5 90/3/5
f 97/2/5 92/2/5 91/2/5
f 97/3/5 91/3/5 96/3/5
f 97/2/5 93/2/5 92/2/5
f 97/2/5 94/2/5 93/2/5
f 98/2/5 94/2/5 97/2/5
f 99/3/5 95/3/5 94/3/5
f 99/2/5 94/2/5 98/2/5
f 100/3/5 96/3/5 90/3/5
f 101/2/5 98/2/5 97/2/5
f 101/3/5 96/3/5 100/3/5
f 101/2/5 97/2/5 96/2/5
f 102/3/5 99/3/5 98/3/5
f 102/2/5 98/2/5 101/2/5
f 103/3/5 95/3/5 99/3/5
f 103/3/5 99/3/5 102/3/5
f 104/2/6 105/2/6 108/2/6
f 105/3/6 106/3/6 108/3/6
f 106/2/6 107/2/6 109/2/6
f 108/3/6 106/3/6 109/3/6
f 109/2/6 107/2/6 110/2/6
f 108/2/6 109/2/6 111/2/6
f 109/3/6 110/3/6 111/3/6
f 110/2/6 107/2/6 112/2/6
f 111/3/6 110/3/6 112/3/6
f 104/2/6 108/2/6 113/2/6
f 108/2/6 111/2/6 113/2/6
f 111/2/6 112/2/6 113/2/6
f 112/2/6 107/2/6 114/2/6
f 113/2/6 112/2/6 114/2/6
