# MagicaVoxel @ Ephtracy

# group
o 

# material
mtllib Leg.mtl
usemtl palette

# normals
vn -1 0 0
vn 1 0 0
vn 0 0 1
vn 0 0 -1
vn 0 -1 0
vn 0 1 0

# texcoords
vt 0.759766 0.5
vt 0.990234 0.5

# verts
v -0.6 0 0.2
v -0.6 0 -0.3
v -0.6 0.1 0.2
v -0.6 0.1 0.1
v -0.6 0.2 0.1
v -0.6 0.2 -0.3
v -0.5 0.2 0
v -0.5 0.2 -0.2
v -0.5 1 0
v -0.5 1 -0.2
v -0.3 0.2 0
v -0.3 0.2 -0.2
v -0.3 1 0
v -0.3 1 -0.2
v -0.2 0 0.2
v -0.2 0 -0.3
v -0.2 0.1 0.2
v -0.2 0.1 0.1
v -0.2 0.2 0.1
v -0.2 0.2 -0.3
v -0.6 0 0.2
v -0.6 0.1 0.2
v -0.2 0 0.2
v -0.2 0.1 0.2
v -0.6 0.1 0.1
v -0.6 0.2 0.1
v -0.2 0.1 0.1
v -0.2 0.2 0.1
v -0.5 0.2 0
v -0.5 1 0
v -0.3 0.2 0
v -0.3 1 0
v -0.5 0.2 -0.2
v -0.5 1 -0.2
v -0.3 0.2 -0.2
v -0.3 1 -0.2
v -0.6 0 -0.3
v -0.6 0.2 -0.3
v -0.2 0 -0.3
v -0.2 0.2 -0.3
v -0.6 0 0.2
v -0.2 0 0.2
v -0.6 0 -0.3
v -0.2 0 -0.3
v -0.6 0.1 0.2
v -0.2 0.1 0.2
v -0.6 0.1 0.1
v -0.2 0.1 0.1
v -0.6 0.2 0.1
v -0.2 0.2 0.1
v -0.5 0.2 0
v -0.3 0.2 0
v -0.5 0.2 -0.2
v -0.3 0.2 -0.2
v -0.6 0.2 -0.3
v -0.2 0.2 -0.3
v -0.5 1 0
v -0.3 1 0
v -0.5 1 -0.2
v -0.3 1 -0.2

# faces
f 3/2/1 2/2/1 1/2/1
f 4/2/1 2/2/1 3/2/1
f 5/2/1 2/2/1 4/2/1
f 6/2/1 2/2/1 5/2/1
f 9/1/1 8/1/1 7/1/1
f 10/1/1 8/1/1 9/1/1
f 11/1/2 12/1/2 13/1/2
f 13/1/2 12/1/2 14/1/2
f 15/2/2 16/2/2 17/2/2
f 17/2/2 16/2/2 18/2/2
f 18/2/2 16/2/2 19/2/2
f 19/2/2 16/2/2 20/2/2
f 23/2/3 22/2/3 21/2/3
f 24/2/3 22/2/3 23/2/3
f 27/2/3 26/2/3 25/2/3
f 28/2/3 26/2/3 27/2/3
f 31/1/3 30/1/3 29/1/3
f 32/1/3 30/1/3 31/1/3
f 33/1/4 34/1/4 35/1/4
f 35/1/4 34/1/4 36/1/4
f 37/2/4 38/2/4 39/2/4
f 39/2/4 38/2/4 40/2/4
f 43/2/5 42/2/5 41/2/5
f 44/2/5 42/2/5 43/2/5
f 45/2/6 46/2/6 47/2/6
f 47/2/6 46/2/6 48/2/6
f 49/2/6 50/2/6 51/2/6
f 51/2/6 50/2/6 52/2/6
f 49/2/6 51/2/6 53/2/6
f 52/2/6 50/2/6 54/2/6
f 49/2/6 53/2/6 55/2/6
f 53/2/6 54/2/6 55/2/6
f 54/2/6 50/2/6 56/2/6
f 55/2/6 54/2/6 56/2/6
f 57/1/6 58/1/6 59/1/6
f 59/1/6 58/1/6 60/1/6
