# Exported from Wings 3D 2.3
mtllib untitled.mtl
o unnamed_object1
#20 vertices, 36 faces
v -0.20000000 0.0000000e+0 0.28529412
v -0.20000000 0.0000000e+0 -0.21470588
v -0.20000000 0.10000000 0.28529412
v -0.20000000 0.10000000 0.18529412
v -0.20000000 0.20000000 0.18529412
v -0.20000000 0.20000000 -0.21470588
v -0.10000000 0.20000000 8.5294118e-2
v -0.10000000 0.20000000 -0.11470588
v -0.10000000 1.00000000 8.5294118e-2
v -0.10000000 1.00000000 -0.11470588
v 0.10000000 0.20000000 8.5294118e-2
v 0.10000000 0.20000000 -0.11470588
v 0.10000000 1.00000000 8.5294118e-2
v 0.10000000 1.00000000 -0.11470588
v 0.20000000 0.0000000e+0 0.28529412
v 0.20000000 0.0000000e+0 -0.21470588
v 0.20000000 0.10000000 0.28529412
v 0.20000000 0.10000000 0.18529412
v 0.20000000 0.20000000 0.18529412
v 0.20000000 0.20000000 -0.21470588
vt 0.75976600 0.50000000
vt 0.99023400 0.50000000
vn -1.00000000 0.0000000e+0 0.0000000e+0
vn 0.0000000e+0 0.0000000e+0 1.00000000
vn 0.0000000e+0 -1.00000000 0.0000000e+0
vn -1.00000000 0.0000000e+0 0.0000000e+0
vn -1.00000000 0.0000000e+0 0.0000000e+0
vn -1.00000000 0.0000000e+0 0.0000000e+0
vn -1.00000000 0.0000000e+0 0.0000000e+0
vn 0.0000000e+0 0.0000000e+0 -1.00000000
vn 0.0000000e+0 -1.00000000 0.0000000e+0
vn 0.0000000e+0 -1.00000000 0.0000000e+0
vn -1.00000000 0.0000000e+0 0.0000000e+0
vn -1.00000000 0.0000000e+0 0.0000000e+0
vn 0.0000000e+0 0.0000000e+0 1.00000000
vn 0.0000000e+0 0.0000000e+0 1.00000000
vn 0.0000000e+0 1.00000000 0.0000000e+0
vn -1.00000000 0.0000000e+0 0.0000000e+0
vn -1.00000000 0.0000000e+0 0.0000000e+0
vn 0.0000000e+0 0.0000000e+0 1.00000000
vn 0.0000000e+0 1.00000000 0.0000000e+0
vn 0.0000000e+0 1.00000000 0.0000000e+0
vn -1.00000000 0.0000000e+0 0.0000000e+0
vn -1.00000000 0.0000000e+0 0.0000000e+0
vn 0.0000000e+0 0.0000000e+0 1.00000000
vn 0.0000000e+0 0.0000000e+0 1.00000000
vn 0.0000000e+0 1.00000000 -1.1564823e-16
vn 0.0000000e+0 1.00000000 -1.1564823e-16
vn 0.0000000e+0 1.00000000 -1.1564823e-16
vn -1.00000000 0.0000000e+0 0.0000000e+0
vn 0.0000000e+0 0.0000000e+0 -1.00000000
vn 0.0000000e+0 0.0000000e+0 -1.00000000
vn 0.0000000e+0 1.00000000 -1.1564823e-16
vn 0.0000000e+0 1.00000000 -1.1564823e-16
vn 0.0000000e+0 1.00000000 -1.1564823e-16
vn -1.00000000 0.0000000e+0 0.0000000e+0
vn 0.0000000e+0 0.0000000e+0 1.00000000
vn 0.0000000e+0 1.00000000 1.1564823e-16
vn 0.0000000e+0 1.00000000 1.1564823e-16
vn 0.0000000e+0 1.00000000 1.1564823e-16
vn -1.00000000 0.0000000e+0 0.0000000e+0
vn -1.00000000 0.0000000e+0 0.0000000e+0
vn 0.0000000e+0 0.0000000e+0 -1.00000000
vn 0.0000000e+0 1.00000000 -2.3129646e-16
vn 0.0000000e+0 1.00000000 -2.3129646e-16
vn 0.0000000e+0 1.00000000 -2.3129646e-16
vn -1.00000000 0.0000000e+0 0.0000000e+0
vn -1.00000000 0.0000000e+0 0.0000000e+0
vn 0.0000000e+0 0.0000000e+0 1.00000000
vn 0.0000000e+0 0.0000000e+0 1.00000000
vn 0.0000000e+0 1.00000000 0.0000000e+0
vn -1.00000000 0.0000000e+0 0.0000000e+0
vn 0.0000000e+0 0.0000000e+0 -1.00000000
vn 0.0000000e+0 0.0000000e+0 -1.00000000
vn 0.0000000e+0 1.00000000 0.0000000e+0
vn 0.0000000e+0 1.00000000 0.0000000e+0
vn 1.00000000 0.0000000e+0 0.0000000e+0
vn 0.0000000e+0 0.0000000e+0 1.00000000
vn 0.0000000e+0 0.0000000e+0 1.00000000
vn 0.0000000e+0 1.00000000 3.4694470e-16
vn 0.0000000e+0 1.00000000 3.4694470e-16
vn 1.00000000 0.0000000e+0 0.0000000e+0
vn 1.00000000 0.0000000e+0 0.0000000e+0
vn 0.0000000e+0 0.0000000e+0 -1.00000000
vn 0.0000000e+0 0.0000000e+0 -1.00000000
vn 0.0000000e+0 1.00000000 -8.6736174e-17
vn 0.0000000e+0 1.00000000 -8.6736174e-17
vn 0.0000000e+0 1.00000000 -8.6736174e-17
vn 0.0000000e+0 1.00000000 -8.6736174e-17
vn 1.00000000 0.0000000e+0 0.0000000e+0
vn 1.00000000 0.0000000e+0 0.0000000e+0
vn 0.0000000e+0 0.0000000e+0 1.00000000
vn 0.0000000e+0 1.00000000 0.0000000e+0
vn 0.0000000e+0 1.00000000 0.0000000e+0
vn 1.00000000 0.0000000e+0 0.0000000e+0
vn 0.0000000e+0 0.0000000e+0 -1.00000000
vn -0.0000000e+0 1.00000000 0.0000000e+0
vn 1.00000000 0.0000000e+0 0.0000000e+0
vn 0.0000000e+0 0.0000000e+0 1.00000000
vn 0.0000000e+0 0.0000000e+0 1.00000000
vn 0.0000000e+0 -1.00000000 0.0000000e+0
vn 0.0000000e+0 -1.00000000 0.0000000e+0
vn 1.00000000 0.0000000e+0 0.0000000e+0
vn 1.00000000 0.0000000e+0 0.0000000e+0
vn 1.00000000 0.0000000e+0 0.0000000e+0
vn 1.00000000 0.0000000e+0 0.0000000e+0
vn 0.0000000e+0 0.0000000e+0 -1.00000000
vn 0.0000000e+0 0.0000000e+0 -1.00000000
vn 0.0000000e+0 -1.00000000 0.0000000e+0
vn 1.00000000 0.0000000e+0 0.0000000e+0
vn 1.00000000 0.0000000e+0 0.0000000e+0
vn 0.0000000e+0 0.0000000e+0 1.00000000
vn 0.0000000e+0 1.00000000 0.0000000e+0
vn 0.0000000e+0 1.00000000 0.0000000e+0
vn 1.00000000 0.0000000e+0 0.0000000e+0
vn 1.00000000 0.0000000e+0 0.0000000e+0
vn 0.0000000e+0 0.0000000e+0 1.00000000
vn 0.0000000e+0 0.0000000e+0 1.00000000
vn 0.0000000e+0 1.00000000 0.0000000e+0
vn 1.00000000 0.0000000e+0 0.0000000e+0
vn 1.00000000 0.0000000e+0 0.0000000e+0
vn 0.0000000e+0 0.0000000e+0 1.00000000
vn 0.0000000e+0 1.00000000 8.6736174e-17
vn 0.0000000e+0 1.00000000 8.6736174e-17
vn 0.0000000e+0 1.00000000 8.6736174e-17
vn 0.0000000e+0 1.00000000 8.6736174e-17
vn 1.00000000 0.0000000e+0 0.0000000e+0
vn 0.0000000e+0 0.0000000e+0 -1.00000000
vn 0.0000000e+0 1.00000000 1.7347235e-16
vn 0.0000000e+0 1.00000000 1.7347235e-16
g unnamed_object1_palette
usemtl palette
s 1
f 1/2/1 3/2/11 2/2/4
f 3/2/12 4/2/16 2/2/5
f 4/2/17 5/2/21 2/2/6
f 5/2/22 6/2/28 2/2/7
f 7/1/34 9/1/45 8/1/39
f 9/1/46 10/1/50 8/1/40
f 12/1/60 13/1/68 11/1/55
f 12/1/61 14/1/73 13/1/69
f 16/2/81 17/2/88 15/2/76
f 16/2/82 18/2/93 17/2/89
f 16/2/83 19/2/98 18/2/94
f 16/2/84 20/2/105 19/2/99
s 2
f 1/2/2 15/2/77 3/2/13
f 4/2/18 18/2/95 5/2/23
f 6/2/29 16/2/85 2/2/8
f 6/2/30 20/2/106 16/2/86
f 7/1/35 11/1/56 9/1/47
f 10/1/51 12/1/62 8/1/41
f 10/1/52 14/1/74 12/1/63
f 11/1/57 13/1/70 9/1/48
f 15/2/78 17/2/90 3/2/14
f 18/2/96 19/2/100 5/2/24
s 3
f 2/2/9 15/2/79 1/2/3
f 2/2/10 16/2/87 15/2/80
f 3/2/15 17/2/91 4/2/19
f 5/2/27 8/2/43 6/2/31
f 5/2/25 19/2/101 7/2/36
f 7/2/38 8/2/42 5/2/26
f 7/2/37 19/2/102 11/2/58
f 8/2/44 12/2/65 6/2/32
f 9/1/49 13/1/71 10/1/53
f 11/2/59 19/2/103 12/2/64
f 12/2/67 20/2/108 6/2/33
f 13/1/72 14/1/75 10/1/54
f 17/2/92 18/2/97 4/2/20
f 19/2/104 20/2/107 12/2/66
