{
	"asset":{
		"generator":"Khronos glTF Blender I/O v3.6.28",
		"version":"2.0"
	},
	"scene":0,
	"scenes":[
		{
			"name":"Scene",
			"nodes":[
				9
			]
		}
	],
	"nodes":[
		{
			"mesh":0,
			"name":"box-Local",
			"translation":[
				0,
				15.999999046325684,
				0
			]
		},
		{
			"children":[
				0
			],
			"name":"box-Global"
		},
		{
			"name":"chld-Local"
		},
		{
			"mesh":1,
			"name":"top-Local",
			"translation":[
				0,
				3.9917593002319336,
				9.009456634521484
			]
		},
		{
			"children":[
				3
			],
			"name":"top-Global",
			"translation":[
				0,
				11.038702964782715,
				-9
			]
		},
		{
			"children":[
				1,
				2,
				4
			],
			"name":"chld-Global"
		},
		{
			"name":"ctrl-Local"
		},
		{
			"children":[
				5,
				6
			],
			"name":"ctrl-Global"
		},
		{
			"name":"World-Local"
		},
		{
			"children":[
				7,
				8
			],
			"name":"Crate",
			"rotation":[
				0,
				0,
				-1,
				0
			],
			"scale":[
				-0.039999961853027344,
				-0.039999961853027344,
				-0.039999961853027344
			]
		}
	],
	"animations":[
		{
			"channels":[
				{
					"sampler":0,
					"target":{
						"node":9,
						"path":"translation"
					}
				},
				{
					"sampler":1,
					"target":{
						"node":9,
						"path":"rotation"
					}
				},
				{
					"sampler":2,
					"target":{
						"node":9,
						"path":"scale"
					}
				}
			],
			"name":"Action",
			"samplers":[
				{
					"input":10,
					"interpolation":"LINEAR",
					"output":11
				},
				{
					"input":10,
					"interpolation":"LINEAR",
					"output":12
				},
				{
					"input":10,
					"interpolation":"LINEAR",
					"output":13
				}
			]
		},
		{
			"channels":[
				{
					"sampler":0,
					"target":{
						"node":4,
						"path":"translation"
					}
				},
				{
					"sampler":1,
					"target":{
						"node":4,
						"path":"rotation"
					}
				},
				{
					"sampler":2,
					"target":{
						"node":4,
						"path":"scale"
					}
				}
			],
			"name":"CrateOpen",
			"samplers":[
				{
					"input":14,
					"interpolation":"LINEAR",
					"output":15
				},
				{
					"input":14,
					"interpolation":"LINEAR",
					"output":16
				},
				{
					"input":17,
					"interpolation":"STEP",
					"output":18
				}
			]
		}
	],
	"materials":[
		{
			"emissiveFactor":[
				1,
				1,
				1
			],
			"emissiveTexture":{
				"index":0,
				"texCoord":1
			},
			"name":"2-Material",
			"pbrMetallicRoughness":{
				"baseColorTexture":{
					"index":1
				},
				"metallicFactor":0
			}
		},
		{
			"emissiveFactor":[
				1,
				1,
				1
			],
			"emissiveTexture":{
				"index":2,
				"texCoord":1
			},
			"name":"Untitled-Material",
			"pbrMetallicRoughness":{
				"baseColorTexture":{
					"index":3
				},
				"metallicFactor":0
			}
		}
	],
	"meshes":[
		{
			"name":"2-Mesh",
			"primitives":[
				{
					"attributes":{
						"POSITION":0,
						"NORMAL":1,
						"TEXCOORD_0":2,
						"TEXCOORD_1":3
					},
					"indices":4,
					"material":0
				}
			]
		},
		{
			"name":"Untitled-Mesh",
			"primitives":[
				{
					"attributes":{
						"POSITION":5,
						"NORMAL":6,
						"TEXCOORD_0":7,
						"TEXCOORD_1":8
					},
					"indices":9,
					"material":1
				}
			]
		}
	],
	"textures":[
		{
			"sampler":0,
			"source":0
		},
		{
			"sampler":0,
			"source":1
		},
		{
			"sampler":0,
			"source":2
		},
		{
			"sampler":0,
			"source":3
		}
	],
	"images":[
		{
			"bufferView":5,
			"mimeType":"image/png",
			"name":"Image_1"
		},
		{
			"bufferView":6,
			"mimeType":"image/png",
			"name":"Image_0"
		},
		{
			"bufferView":12,
			"mimeType":"image/png",
			"name":"Image_3"
		},
		{
			"bufferView":13,
			"mimeType":"image/png",
			"name":"Image_2"
		}
	],
	"accessors":[
		{
			"bufferView":0,
			"componentType":5126,
			"count":576,
			"max":[
				15,
				-3,
				10
			],
			"min":[
				-15,
				-16,
				-11
			],
			"type":"VEC3"
		},
		{
			"bufferView":1,
			"componentType":5126,
			"count":576,
			"type":"VEC3"
		},
		{
			"bufferView":2,
			"componentType":5126,
			"count":576,
			"type":"VEC2"
		},
		{
			"bufferView":3,
			"componentType":5126,
			"count":576,
			"type":"VEC2"
		},
		{
			"bufferView":4,
			"componentType":5123,
			"count":576,
			"type":"SCALAR"
		},
		{
			"bufferView":7,
			"componentType":5126,
			"count":954,
			"max":[
				15.000001907348633,
				3,
				11
			],
			"min":[
				-15.000001907348633,
				-5,
				-11
			],
			"type":"VEC3"
		},
		{
			"bufferView":8,
			"componentType":5126,
			"count":954,
			"type":"VEC3"
		},
		{
			"bufferView":9,
			"componentType":5126,
			"count":954,
			"type":"VEC2"
		},
		{
			"bufferView":10,
			"componentType":5126,
			"count":954,
			"type":"VEC2"
		},
		{
			"bufferView":11,
			"componentType":5123,
			"count":954,
			"type":"SCALAR"
		},
		{
			"bufferView":14,
			"componentType":5126,
			"count":1,
			"max":[
				0.041666666666666664
			],
			"min":[
				0.041666666666666664
			],
			"type":"SCALAR"
		},
		{
			"bufferView":15,
			"componentType":5126,
			"count":1,
			"type":"VEC3"
		},
		{
			"bufferView":16,
			"componentType":5126,
			"count":1,
			"type":"VEC4"
		},
		{
			"bufferView":17,
			"componentType":5126,
			"count":1,
			"type":"VEC3"
		},
		{
			"bufferView":18,
			"componentType":5126,
			"count":10,
			"max":[
				0.4166666666666667
			],
			"min":[
				0.041666666666666664
			],
			"type":"SCALAR"
		},
		{
			"bufferView":19,
			"componentType":5126,
			"count":10,
			"type":"VEC3"
		},
		{
			"bufferView":20,
			"componentType":5126,
			"count":10,
			"type":"VEC4"
		},
		{
			"bufferView":21,
			"componentType":5126,
			"count":2,
			"max":[
				0.4166666666666667
			],
			"min":[
				0.041666666666666664
			],
			"type":"SCALAR"
		},
		{
			"bufferView":22,
			"componentType":5126,
			"count":2,
			"type":"VEC3"
		}
	],
	"bufferViews":[
		{
			"buffer":0,
			"byteLength":6912,
			"byteOffset":0,
			"target":34962
		},
		{
			"buffer":0,
			"byteLength":6912,
			"byteOffset":6912,
			"target":34962
		},
		{
			"buffer":0,
			"byteLength":4608,
			"byteOffset":13824,
			"target":34962
		},
		{
			"buffer":0,
			"byteLength":4608,
			"byteOffset":18432,
			"target":34962
		},
		{
			"buffer":0,
			"byteLength":1152,
			"byteOffset":23040,
			"target":34963
		},
		{
			"buffer":0,
			"byteLength":989,
			"byteOffset":24192
		},
		{
			"buffer":0,
			"byteLength":1039,
			"byteOffset":25184
		},
		{
			"buffer":0,
			"byteLength":11448,
			"byteOffset":26224,
			"target":34962
		},
		{
			"buffer":0,
			"byteLength":11448,
			"byteOffset":37672,
			"target":34962
		},
		{
			"buffer":0,
			"byteLength":7632,
			"byteOffset":49120,
			"target":34962
		},
		{
			"buffer":0,
			"byteLength":7632,
			"byteOffset":56752,
			"target":34962
		},
		{
			"buffer":0,
			"byteLength":1908,
			"byteOffset":64384,
			"target":34963
		},
		{
			"buffer":0,
			"byteLength":659,
			"byteOffset":66292
		},
		{
			"buffer":0,
			"byteLength":798,
			"byteOffset":66952
		},
		{
			"buffer":0,
			"byteLength":4,
			"byteOffset":67752
		},
		{
			"buffer":0,
			"byteLength":12,
			"byteOffset":67756
		},
		{
			"buffer":0,
			"byteLength":16,
			"byteOffset":67768
		},
		{
			"buffer":0,
			"byteLength":12,
			"byteOffset":67784
		},
		{
			"buffer":0,
			"byteLength":40,
			"byteOffset":67796
		},
		{
			"buffer":0,
			"byteLength":120,
			"byteOffset":67836
		},
		{
			"buffer":0,
			"byteLength":160,
			"byteOffset":67956
		},
		{
			"buffer":0,
			"byteLength":8,
			"byteOffset":68116
		},
		{
			"buffer":0,
			"byteLength":24,
			"byteOffset":68124
		}
	],
	"samplers":[
		{
			"magFilter":9728,
			"minFilter":9984,
			"wrapS":33071,
			"wrapT":33071
		}
	],
	"buffers":[
		{
			"byteLength":68148,
			"uri":"data:application/octet-stream;base64,"
		}
	]
}
