# MagicaVoxel @ Ephtracy

# group
o 

# material
mtllib Target.mtl
usemtl palette

# normals
vn -1 0 0
vn 1 0 0
vn 0 0 1
vn 0 0 -1
vn 0 -1 0
vn 0 1 0

# texcoords
vt 0.970703 0.5
vt 0.974609 0.5

# verts
v -1 0 -0.2
v -1 0 -0.7
v -1 1.7 -0.2
v -1 1.7 -0.7
v -0.8 0.2 -0.1
v -0.8 0.2 -0.2
v -0.8 0.2 -0.7
v -0.8 0.2 -0.8
v -0.8 1.5 -0.1
v -0.8 1.5 -0.2
v -0.8 1.5 -0.7
v -0.8 1.5 -0.8
v -0.4 0.6 -3.72529e-08
v -0.4 0.6 -0.1
v -0.4 1.1 -3.72529e-08
v -0.4 1.1 -0.1
v -0.3 0.6 -0.8
v -0.3 0.6 -0.9
v -0.3 1.1 -0.8
v -0.3 1.1 -0.9
v 0.1 0.6 -3.72529e-08
v 0.1 0.6 -0.1
v 0.1 1.1 -3.72529e-08
v 0.1 1.1 -0.1
v 0.2 0.6 -0.8
v 0.2 0.6 -0.9
v 0.2 1.1 -0.8
v 0.2 1.1 -0.9
v 0.6 0.2 -0.1
v 0.6 0.2 -0.2
v 0.6 0.2 -0.7
v 0.6 0.2 -0.8
v 0.6 1.5 -0.1
v 0.6 1.5 -0.2
v 0.6 1.5 -0.7
v 0.6 1.5 -0.8
v 0.8 0 -0.2
v 0.8 0 -0.7
v 0.8 1.7 -0.2
v 0.8 1.7 -0.7
v -0.4 0.6 -3.72529e-08
v -0.4 1.1 -3.72529e-08
v 0.1 0.6 -3.72529e-08
v 0.1 1.1 -3.72529e-08
v -0.8 0.2 -0.1
v -0.8 1.5 -0.1
v -0.4 0.6 -0.1
v -0.4 1.1 -0.1
v 0.1 0.6 -0.1
v 0.1 1.1 -0.1
v 0.6 0.2 -0.1
v 0.6 1.5 -0.1
v -1 0 -0.2
v -1 1.7 -0.2
v -0.8 0.2 -0.2
v -0.8 1.5 -0.2
v 0.6 0.2 -0.2
v 0.6 1.5 -0.2
v 0.8 0 -0.2
v 0.8 1.7 -0.2
v -1 0 -0.7
v -1 1.7 -0.7
v -0.8 0.2 -0.7
v -0.8 1.5 -0.7
v 0.6 0.2 -0.7
v 0.6 1.5 -0.7
v 0.8 0 -0.7
v 0.8 1.7 -0.7
v -0.8 0.2 -0.8
v -0.8 1.5 -0.8
v -0.3 0.6 -0.8
v -0.3 1.1 -0.8
v 0.2 0.6 -0.8
v 0.2 1.1 -0.8
v 0.6 0.2 -0.8
v 0.6 1.5 -0.8
v -0.3 0.6 -0.9
v -0.3 1.1 -0.9
v 0.2 0.6 -0.9
v 0.2 1.1 -0.9
v -1 0 -0.2
v 0.8 0 -0.2
v -1 0 -0.7
v 0.8 0 -0.7
v -0.8 0.2 -0.1
v 0.6 0.2 -0.1
v -0.8 0.2 -0.2
v 0.6 0.2 -0.2
v -0.8 0.2 -0.7
v 0.6 0.2 -0.7
v -0.8 0.2 -0.8
v 0.6 0.2 -0.8
v -0.4 0.6 -3.72529e-08
v 0.1 0.6 -3.72529e-08
v -0.4 0.6 -0.1
v 0.1 0.6 -0.1
v -0.3 0.6 -0.8
v 0.2 0.6 -0.8
v -0.3 0.6 -0.9
v 0.2 0.6 -0.9
v -0.4 1.1 -3.72529e-08
v 0.1 1.1 -3.72529e-08
v -0.4 1.1 -0.1
v 0.1 1.1 -0.1
v -0.3 1.1 -0.8
v 0.2 1.1 -0.8
v -0.3 1.1 -0.9
v 0.2 1.1 -0.9
v -0.8 1.5 -0.1
v 0.6 1.5 -0.1
v -0.8 1.5 -0.2
v 0.6 1.5 -0.2
v -0.8 1.5 -0.7
v 0.6 1.5 -0.7
v -0.8 1.5 -0.8
v 0.6 1.5 -0.8
v -1 1.7 -0.2
v 0.8 1.7 -0.2
v -1 1.7 -0.7
v 0.8 1.7 -0.7

# faces
f 3/1/1 2/1/1 1/1/1
f 4/1/1 2/1/1 3/1/1
f 9/2/1 6/2/1 5/2/1
f 10/2/1 6/2/1 9/2/1
f 11/2/1 8/2/1 7/2/1
f 12/2/1 8/2/1 11/2/1
f 15/1/1 14/1/1 13/1/1
f 16/1/1 14/1/1 15/1/1
f 19/1/1 18/1/1 17/1/1
f 20/1/1 18/1/1 19/1/1
f 21/1/2 22/1/2 23/1/2
f 23/1/2 22/1/2 24/1/2
f 25/1/2 26/1/2 27/1/2
f 27/1/2 26/1/2 28/1/2
f 29/2/2 30/2/2 33/2/2
f 33/2/2 30/2/2 34/2/2
f 31/2/2 32/2/2 35/2/2
f 35/2/2 32/2/2 36/2/2
f 37/1/2 38/1/2 39/1/2
f 39/1/2 38/1/2 40/1/2
f 43/1/3 42/1/3 41/1/3
f 44/1/3 42/1/3 43/1/3
f 47/2/3 46/2/3 45/2/3
f 48/2/3 46/2/3 47/2/3
f 49/2/3 47/2/3 45/2/3
f 50/2/3 46/2/3 48/2/3
f 51/2/3 49/2/3 45/2/3
f 51/2/3 50/2/3 49/2/3
f 52/2/3 46/2/3 50/2/3
f 52/2/3 50/2/3 51/2/3
f 55/1/3 54/1/3 53/1/3
f 56/1/3 54/1/3 55/1/3
f 57/1/3 55/1/3 53/1/3
f 58/1/3 54/1/3 56/1/3
f 59/1/3 57/1/3 53/1/3
f 59/1/3 58/1/3 57/1/3
f 60/1/3 54/1/3 58/1/3
f 60/1/3 58/1/3 59/1/3
f 61/1/4 62/1/4 63/1/4
f 63/1/4 62/1/4 64/1/4
f 61/1/4 63/1/4 65/1/4
f 64/1/4 62/1/4 66/1/4
f 61/1/4 65/1/4 67/1/4
f 65/1/4 66/1/4 67/1/4
f 66/1/4 62/1/4 68/1/4
f 67/1/4 66/1/4 68/1/4
f 69/2/4 70/2/4 71/2/4
f 71/2/4 70/2/4 72/2/4
f 69/2/4 71/2/4 73/2/4
f 72/2/4 70/2/4 74/2/4
f 69/2/4 73/2/4 75/2/4
f 73/2/4 74/2/4 75/2/4
f 74/2/4 70/2/4 76/2/4
f 75/2/4 74/2/4 76/2/4
f 77/1/4 78/1/4 79/1/4
f 79/1/4 78/1/4 80/1/4
f 83/1/5 82/1/5 81/1/5
f 84/1/5 82/1/5 83/1/5
f 87/2/5 86/2/5 85/2/5
f 88/2/5 86/2/5 87/2/5
f 91/2/5 90/2/5 89/2/5
f 92/2/5 90/2/5 91/2/5
f 95/1/5 94/1/5 93/1/5
f 96/1/5 94/1/5 95/1/5
f 99/1/5 98/1/5 97/1/5
f 100/1/5 98/1/5 99/1/5
f 101/1/6 102/1/6 103/1/6
f 103/1/6 102/1/6 104/1/6
f 105/1/6 106/1/6 107/1/6
f 107/1/6 106/1/6 108/1/6
f 109/2/6 110/2/6 111/2/6
f 111/2/6 110/2/6 112/2/6
f 113/2/6 114/2/6 115/2/6
f 115/2/6 114/2/6 116/2/6
f 117/1/6 118/1/6 119/1/6
f 119/1/6 118/1/6 120/1/6
