{
	"asset":{
		"generator":"Khronos glTF Blender I/O v3.6.28",
		"version":"2.0"
	},
	"extensionsUsed":[
		"KHR_materials_specular",
		"KHR_materials_ior"
	],
	"scene":0,
	"scenes":[
		{
			"name":"Scene",
			"nodes":[
				2,
				12
			]
		}
	],
	"nodes":[
		{
			"mesh":0,
			"name":"mag",
			"translation":[
				-1.3159222602844238,
				-0.026683688163757324,
				0
			]
		},
		{
			"mesh":1,
			"name":"pull",
			"translation":[
				-1.1205060482025146,
				0.1183478832244873,
				0.13610371947288513
			]
		},
		{
			"children":[
				0,
				1
			],
			"mesh":2,
			"name":"lasergun",
			"translation":[
				0.8759222626686096,
				1.4037766456604004,
				0
			]
		},
		{
			"mesh":3,
			"name":"box-Local",
			"translation":[
				0,
				15.999999046325684,
				0
			]
		},
		{
			"children":[
				3
			],
			"name":"box-Global"
		},
		{
			"name":"chld-Local"
		},
		{
			"mesh":4,
			"name":"top-Local",
			"translation":[
				0,
				3.9917593002319336,
				9.009456634521484
			]
		},
		{
			"children":[
				6
			],
			"name":"top-Global",
			"translation":[
				0,
				11.038702964782715,
				-9
			]
		},
		{
			"children":[
				4,
				5,
				7
			],
			"name":"chld-Global"
		},
		{
			"name":"ctrl-Local"
		},
		{
			"children":[
				8,
				9
			],
			"name":"ctrl-Global"
		},
		{
			"name":"World-Local"
		},
		{
			"children":[
				10,
				11
			],
			"name":"Crate",
			"rotation":[
				0,
				0,
				-1,
				0
			],
			"scale":[
				-0.039999961853027344,
				-0.039999961853027344,
				-0.039999961853027344
			]
		}
	],
	"animations":[
		{
			"channels":[
				{
					"sampler":0,
					"target":{
						"node":2,
						"path":"translation"
					}
				},
				{
					"sampler":1,
					"target":{
						"node":2,
						"path":"rotation"
					}
				},
				{
					"sampler":2,
					"target":{
						"node":2,
						"path":"scale"
					}
				}
			],
			"name":"lasergunShoot",
			"samplers":[
				{
					"input":22,
					"interpolation":"LINEAR",
					"output":23
				},
				{
					"input":22,
					"interpolation":"LINEAR",
					"output":24
				},
				{
					"input":25,
					"interpolation":"STEP",
					"output":26
				}
			]
		},
		{
			"channels":[
				{
					"sampler":0,
					"target":{
						"node":0,
						"path":"translation"
					}
				},
				{
					"sampler":1,
					"target":{
						"node":0,
						"path":"rotation"
					}
				},
				{
					"sampler":2,
					"target":{
						"node":0,
						"path":"scale"
					}
				}
			],
			"name":"magAction",
			"samplers":[
				{
					"input":27,
					"interpolation":"LINEAR",
					"output":28
				},
				{
					"input":27,
					"interpolation":"LINEAR",
					"output":29
				},
				{
					"input":30,
					"interpolation":"STEP",
					"output":31
				}
			]
		},
		{
			"channels":[
				{
					"sampler":0,
					"target":{
						"node":0,
						"path":"translation"
					}
				},
				{
					"sampler":1,
					"target":{
						"node":0,
						"path":"rotation"
					}
				},
				{
					"sampler":2,
					"target":{
						"node":0,
						"path":"scale"
					}
				}
			],
			"name":"magReload",
			"samplers":[
				{
					"input":27,
					"interpolation":"LINEAR",
					"output":32
				},
				{
					"input":27,
					"interpolation":"LINEAR",
					"output":33
				},
				{
					"input":30,
					"interpolation":"STEP",
					"output":34
				}
			]
		},
		{
			"channels":[
				{
					"sampler":0,
					"target":{
						"node":0,
						"path":"translation"
					}
				},
				{
					"sampler":1,
					"target":{
						"node":0,
						"path":"rotation"
					}
				},
				{
					"sampler":2,
					"target":{
						"node":0,
						"path":"scale"
					}
				}
			],
			"name":"magShoot",
			"samplers":[
				{
					"input":27,
					"interpolation":"LINEAR",
					"output":35
				},
				{
					"input":27,
					"interpolation":"LINEAR",
					"output":36
				},
				{
					"input":30,
					"interpolation":"STEP",
					"output":37
				}
			]
		},
		{
			"channels":[
				{
					"sampler":0,
					"target":{
						"node":1,
						"path":"translation"
					}
				},
				{
					"sampler":1,
					"target":{
						"node":1,
						"path":"rotation"
					}
				},
				{
					"sampler":2,
					"target":{
						"node":1,
						"path":"scale"
					}
				}
			],
			"name":"pullShot",
			"samplers":[
				{
					"input":27,
					"interpolation":"LINEAR",
					"output":38
				},
				{
					"input":30,
					"interpolation":"LINEAR",
					"output":39
				},
				{
					"input":30,
					"interpolation":"STEP",
					"output":40
				}
			]
		},
		{
			"channels":[
				{
					"sampler":0,
					"target":{
						"node":12,
						"path":"translation"
					}
				},
				{
					"sampler":1,
					"target":{
						"node":12,
						"path":"rotation"
					}
				},
				{
					"sampler":2,
					"target":{
						"node":12,
						"path":"scale"
					}
				}
			],
			"name":"Action",
			"samplers":[
				{
					"input":41,
					"interpolation":"LINEAR",
					"output":42
				},
				{
					"input":41,
					"interpolation":"LINEAR",
					"output":43
				},
				{
					"input":41,
					"interpolation":"LINEAR",
					"output":44
				}
			]
		},
		{
			"channels":[
				{
					"sampler":0,
					"target":{
						"node":7,
						"path":"translation"
					}
				},
				{
					"sampler":1,
					"target":{
						"node":7,
						"path":"rotation"
					}
				},
				{
					"sampler":2,
					"target":{
						"node":7,
						"path":"scale"
					}
				}
			],
			"name":"CrateOpen",
			"samplers":[
				{
					"input":45,
					"interpolation":"LINEAR",
					"output":46
				},
				{
					"input":45,
					"interpolation":"LINEAR",
					"output":47
				},
				{
					"input":48,
					"interpolation":"STEP",
					"output":49
				}
			]
		}
	],
	"materials":[
		{
			"doubleSided":true,
			"emissiveFactor":[
				1,
				1,
				1
			],
			"emissiveTexture":{
				"index":0
			},
			"extensions":{
				"KHR_materials_specular":{
					"specularColorFactor":[
						0.1401256849266605,
						0.1401256849266605,
						0.1401256849266605
					]
				},
				"KHR_materials_ior":{
					"ior":1.4500000476837158
				}
			},
			"name":"Base.001",
			"normalTexture":{
				"index":1
			},
			"pbrMetallicRoughness":{
				"baseColorTexture":{
					"index":2
				},
				"metallicRoughnessTexture":{
					"index":3
				}
			}
		},
		{
			"doubleSided":true,
			"emissiveFactor":[
				1,
				1,
				1
			],
			"emissiveTexture":{
				"index":4
			},
			"extensions":{
				"KHR_materials_specular":{
					"specularColorFactor":[
						0.1401256849266605,
						0.1401256849266605,
						0.1401256849266605
					]
				},
				"KHR_materials_ior":{
					"ior":1.4500000476837158
				}
			},
			"name":"Base",
			"normalTexture":{
				"index":5
			},
			"pbrMetallicRoughness":{
				"baseColorTexture":{
					"index":6
				},
				"metallicRoughnessTexture":{
					"index":7
				}
			}
		},
		{
			"emissiveFactor":[
				1,
				1,
				1
			],
			"emissiveTexture":{
				"index":8,
				"texCoord":1
			},
			"name":"2-Material",
			"pbrMetallicRoughness":{
				"baseColorTexture":{
					"index":9
				},
				"metallicFactor":0
			}
		},
		{
			"emissiveFactor":[
				1,
				1,
				1
			],
			"emissiveTexture":{
				"index":10,
				"texCoord":1
			},
			"name":"Untitled-Material",
			"pbrMetallicRoughness":{
				"baseColorTexture":{
					"index":11
				},
				"metallicFactor":0
			}
		}
	],
	"meshes":[
		{
			"name":"Cube.006",
			"primitives":[
				{
					"attributes":{
						"POSITION":0,
						"NORMAL":1,
						"TEXCOORD_0":2
					},
					"indices":3,
					"material":0
				}
			]
		},
		{
			"name":"Plane.001",
			"primitives":[
				{
					"attributes":{
						"POSITION":4,
						"NORMAL":5,
						"TEXCOORD_0":6
					},
					"indices":7,
					"material":1
				}
			]
		},
		{
			"name":"Cube.016",
			"primitives":[
				{
					"attributes":{
						"POSITION":8,
						"NORMAL":9,
						"TEXCOORD_0":10
					},
					"indices":11,
					"material":0
				}
			]
		},
		{
			"name":"2-Mesh",
			"primitives":[
				{
					"attributes":{
						"POSITION":12,
						"NORMAL":13,
						"TEXCOORD_0":14,
						"TEXCOORD_1":15
					},
					"indices":16,
					"material":2
				}
			]
		},
		{
			"name":"Untitled-Mesh",
			"primitives":[
				{
					"attributes":{
						"POSITION":17,
						"NORMAL":18,
						"TEXCOORD_0":19,
						"TEXCOORD_1":20
					},
					"indices":21,
					"material":3
				}
			]
		}
	],
	"textures":[
		{
			"sampler":0,
			"source":0
		},
		{
			"sampler":0,
			"source":1
		},
		{
			"sampler":0,
			"source":2
		},
		{
			"sampler":0,
			"source":3
		},
		{
			"sampler":0,
			"source":4
		},
		{
			"sampler":0,
			"source":5
		},
		{
			"sampler":0,
			"source":6
		},
		{
			"sampler":0,
			"source":7
		},
		{
			"sampler":1,
			"source":8
		},
		{
			"sampler":1,
			"source":9
		},
		{
			"sampler":1,
			"source":10
		},
		{
			"sampler":1,
			"source":11
		}
	],
	"images":[
		{
			"bufferView":4,
			"mimeType":"image/png",
			"name":"Base_Emissive.png"
		},
		{
			"bufferView":5,
			"mimeType":"image/png",
			"name":"Base_Normal"
		},
		{
			"bufferView":6,
			"mimeType":"image/png",
			"name":"Base_Base_color.png"
		},
		{
			"bufferView":7,
			"mimeType":"image/png",
			"name":"Base_Metallic.png-Base_Roughness.png"
		},
		{
			"bufferView":12,
			"mimeType":"image/png",
			"name":"Base_Emissive"
		},
		{
			"bufferView":13,
			"mimeType":"image/png",
			"name":"Base_Normal_OpenGL"
		},
		{
			"bufferView":14,
			"mimeType":"image/png",
			"name":"Base_Base_color"
		},
		{
			"bufferView":15,
			"mimeType":"image/png",
			"name":"Base_Metallic-Base_Roughness"
		},
		{
			"bufferView":25,
			"mimeType":"image/png",
			"name":"Image_1"
		},
		{
			"bufferView":26,
			"mimeType":"image/png",
			"name":"Image_0"
		},
		{
			"bufferView":32,
			"mimeType":"image/png",
			"name":"Image_3"
		},
		{
			"bufferView":33,
			"mimeType":"image/png",
			"name":"Image_2"
		}
	],
	"accessors":[
		{
			"bufferView":0,
			"componentType":5126,
			"count":76,
			"max":[
				0.32611122727394104,
				0.053055617958307266,
				0.06366673856973648
			],
			"min":[
				-0.059999994933605194,
				-0.053055617958307266,
				-0.06366673856973648
			],
			"type":"VEC3"
		},
		{
			"bufferView":1,
			"componentType":5126,
			"count":76,
			"type":"VEC3"
		},
		{
			"bufferView":2,
			"componentType":5126,
			"count":76,
			"type":"VEC2"
		},
		{
			"bufferView":3,
			"componentType":5123,
			"count":180,
			"type":"SCALAR"
		},
		{
			"bufferView":8,
			"componentType":5126,
			"count":44,
			"max":[
				0.0019322598818689585,
				0.023742912337183952,
				0.02374287135899067
			],
			"min":[
				-0.01577772945165634,
				-0.023742830380797386,
				-0.036603353917598724
			],
			"type":"VEC3"
		},
		{
			"bufferView":9,
			"componentType":5126,
			"count":44,
			"type":"VEC3"
		},
		{
			"bufferView":10,
			"componentType":5126,
			"count":44,
			"type":"VEC2"
		},
		{
			"bufferView":11,
			"componentType":5123,
			"count":78,
			"type":"SCALAR"
		},
		{
			"bufferView":16,
			"componentType":5126,
			"count":951,
			"max":[
				0.46622776985168457,
				0.44120728969573975,
				0.10761509090662003
			],
			"min":[
				-1.4160377979278564,
				-0.13096877932548523,
				-0.10000000149011612
			],
			"type":"VEC3"
		},
		{
			"bufferView":17,
			"componentType":5126,
			"count":951,
			"type":"VEC3"
		},
		{
			"bufferView":18,
			"componentType":5126,
			"count":951,
			"type":"VEC2"
		},
		{
			"bufferView":19,
			"componentType":5123,
			"count":2166,
			"type":"SCALAR"
		},
		{
			"bufferView":20,
			"componentType":5126,
			"count":576,
			"max":[
				15,
				-3,
				10
			],
			"min":[
				-15,
				-16,
				-11
			],
			"type":"VEC3"
		},
		{
			"bufferView":21,
			"componentType":5126,
			"count":576,
			"type":"VEC3"
		},
		{
			"bufferView":22,
			"componentType":5126,
			"count":576,
			"type":"VEC2"
		},
		{
			"bufferView":23,
			"componentType":5126,
			"count":576,
			"type":"VEC2"
		},
		{
			"bufferView":24,
			"componentType":5123,
			"count":576,
			"type":"SCALAR"
		},
		{
			"bufferView":27,
			"componentType":5126,
			"count":954,
			"max":[
				15.000001907348633,
				3,
				11
			],
			"min":[
				-15.000001907348633,
				-5,
				-11
			],
			"type":"VEC3"
		},
		{
			"bufferView":28,
			"componentType":5126,
			"count":954,
			"type":"VEC3"
		},
		{
			"bufferView":29,
			"componentType":5126,
			"count":954,
			"type":"VEC2"
		},
		{
			"bufferView":30,
			"componentType":5126,
			"count":954,
			"type":"VEC2"
		},
		{
			"bufferView":31,
			"componentType":5123,
			"count":954,
			"type":"SCALAR"
		},
		{
			"bufferView":34,
			"componentType":5126,
			"count":5,
			"max":[
				0.20833333333333334
			],
			"min":[
				0.041666666666666664
			],
			"type":"SCALAR"
		},
		{
			"bufferView":35,
			"componentType":5126,
			"count":5,
			"type":"VEC3"
		},
		{
			"bufferView":36,
			"componentType":5126,
			"count":5,
			"type":"VEC4"
		},
		{
			"bufferView":37,
			"componentType":5126,
			"count":2,
			"max":[
				0.20833333333333334
			],
			"min":[
				0.041666666666666664
			],
			"type":"SCALAR"
		},
		{
			"bufferView":38,
			"componentType":5126,
			"count":2,
			"type":"VEC3"
		},
		{
			"bufferView":39,
			"componentType":5126,
			"count":24,
			"max":[
				1
			],
			"min":[
				0.041666666666666664
			],
			"type":"SCALAR"
		},
		{
			"bufferView":40,
			"componentType":5126,
			"count":24,
			"type":"VEC3"
		},
		{
			"bufferView":41,
			"componentType":5126,
			"count":24,
			"type":"VEC4"
		},
		{
			"bufferView":42,
			"componentType":5126,
			"count":2,
			"max":[
				1
			],
			"min":[
				0.041666666666666664
			],
			"type":"SCALAR"
		},
		{
			"bufferView":43,
			"componentType":5126,
			"count":2,
			"type":"VEC3"
		},
		{
			"bufferView":44,
			"componentType":5126,
			"count":24,
			"type":"VEC3"
		},
		{
			"bufferView":45,
			"componentType":5126,
			"count":24,
			"type":"VEC4"
		},
		{
			"bufferView":46,
			"componentType":5126,
			"count":2,
			"type":"VEC3"
		},
		{
			"bufferView":47,
			"componentType":5126,
			"count":24,
			"type":"VEC3"
		},
		{
			"bufferView":48,
			"componentType":5126,
			"count":24,
			"type":"VEC4"
		},
		{
			"bufferView":49,
			"componentType":5126,
			"count":2,
			"type":"VEC3"
		},
		{
			"bufferView":50,
			"componentType":5126,
			"count":24,
			"type":"VEC3"
		},
		{
			"bufferView":51,
			"componentType":5126,
			"count":2,
			"type":"VEC4"
		},
		{
			"bufferView":52,
			"componentType":5126,
			"count":2,
			"type":"VEC3"
		},
		{
			"bufferView":53,
			"componentType":5126,
			"count":1,
			"max":[
				0.041666666666666664
			],
			"min":[
				0.041666666666666664
			],
			"type":"SCALAR"
		},
		{
			"bufferView":54,
			"componentType":5126,
			"count":1,
			"type":"VEC3"
		},
		{
			"bufferView":55,
			"componentType":5126,
			"count":1,
			"type":"VEC4"
		},
		{
			"bufferView":56,
			"componentType":5126,
			"count":1,
			"type":"VEC3"
		},
		{
			"bufferView":57,
			"componentType":5126,
			"count":10,
			"max":[
				0.4166666666666667
			],
			"min":[
				0.041666666666666664
			],
			"type":"SCALAR"
		},
		{
			"bufferView":58,
			"componentType":5126,
			"count":10,
			"type":"VEC3"
		},
		{
			"bufferView":59,
			"componentType":5126,
			"count":10,
			"type":"VEC4"
		},
		{
			"bufferView":60,
			"componentType":5126,
			"count":2,
			"max":[
				0.4166666666666667
			],
			"min":[
				0.041666666666666664
			],
			"type":"SCALAR"
		},
		{
			"bufferView":61,
			"componentType":5126,
			"count":2,
			"type":"VEC3"
		}
	],
	"bufferViews":[
		{
			"buffer":0,
			"byteLength":912,
			"byteOffset":0,
			"target":34962
		},
		{
			"buffer":0,
			"byteLength":912,
			"byteOffset":912,
			"target":34962
		},
		{
			"buffer":0,
			"byteLength":608,
			"byteOffset":1824,
			"target":34962
		},
		{
			"buffer":0,
			"byteLength":360,
			"byteOffset":2432,
			"target":34963
		},
		{
			"buffer":0,
			"byteLength":9863,
			"byteOffset":2792
		},
		{
			"buffer":0,
			"byteLength":6006,
			"byteOffset":12656
		},
		{
			"buffer":0,
			"byteLength":149675,
			"byteOffset":18664
		},
		{
			"buffer":0,
			"byteLength":158654,
			"byteOffset":168340
		},
		{
			"buffer":0,
			"byteLength":528,
			"byteOffset":326996,
			"target":34962
		},
		{
			"buffer":0,
			"byteLength":528,
			"byteOffset":327524,
			"target":34962
		},
		{
			"buffer":0,
			"byteLength":352,
			"byteOffset":328052,
			"target":34962
		},
		{
			"buffer":0,
			"byteLength":156,
			"byteOffset":328404,
			"target":34963
		},
		{
			"buffer":0,
			"byteLength":9863,
			"byteOffset":328560
		},
		{
			"buffer":0,
			"byteLength":40647,
			"byteOffset":338424
		},
		{
			"buffer":0,
			"byteLength":149675,
			"byteOffset":379072
		},
		{
			"buffer":0,
			"byteLength":57820,
			"byteOffset":528748
		},
		{
			"buffer":0,
			"byteLength":11412,
			"byteOffset":586568,
			"target":34962
		},
		{
			"buffer":0,
			"byteLength":11412,
			"byteOffset":597980,
			"target":34962
		},
		{
			"buffer":0,
			"byteLength":7608,
			"byteOffset":609392,
			"target":34962
		},
		{
			"buffer":0,
			"byteLength":4332,
			"byteOffset":617000,
			"target":34963
		},
		{
			"buffer":0,
			"byteLength":6912,
			"byteOffset":621332,
			"target":34962
		},
		{
			"buffer":0,
			"byteLength":6912,
			"byteOffset":628244,
			"target":34962
		},
		{
			"buffer":0,
			"byteLength":4608,
			"byteOffset":635156,
			"target":34962
		},
		{
			"buffer":0,
			"byteLength":4608,
			"byteOffset":639764,
			"target":34962
		},
		{
			"buffer":0,
			"byteLength":1152,
			"byteOffset":644372,
			"target":34963
		},
		{
			"buffer":0,
			"byteLength":989,
			"byteOffset":645524
		},
		{
			"buffer":0,
			"byteLength":1039,
			"byteOffset":646516
		},
		{
			"buffer":0,
			"byteLength":11448,
			"byteOffset":647556,
			"target":34962
		},
		{
			"buffer":0,
			"byteLength":11448,
			"byteOffset":659004,
			"target":34962
		},
		{
			"buffer":0,
			"byteLength":7632,
			"byteOffset":670452,
			"target":34962
		},
		{
			"buffer":0,
			"byteLength":7632,
			"byteOffset":678084,
			"target":34962
		},
		{
			"buffer":0,
			"byteLength":1908,
			"byteOffset":685716,
			"target":34963
		},
		{
			"buffer":0,
			"byteLength":659,
			"byteOffset":687624
		},
		{
			"buffer":0,
			"byteLength":798,
			"byteOffset":688284
		},
		{
			"buffer":0,
			"byteLength":20,
			"byteOffset":689084
		},
		{
			"buffer":0,
			"byteLength":60,
			"byteOffset":689104
		},
		{
			"buffer":0,
			"byteLength":80,
			"byteOffset":689164
		},
		{
			"buffer":0,
			"byteLength":8,
			"byteOffset":689244
		},
		{
			"buffer":0,
			"byteLength":24,
			"byteOffset":689252
		},
		{
			"buffer":0,
			"byteLength":96,
			"byteOffset":689276
		},
		{
			"buffer":0,
			"byteLength":288,
			"byteOffset":689372
		},
		{
			"buffer":0,
			"byteLength":384,
			"byteOffset":689660
		},
		{
			"buffer":0,
			"byteLength":8,
			"byteOffset":690044
		},
		{
			"buffer":0,
			"byteLength":24,
			"byteOffset":690052
		},
		{
			"buffer":0,
			"byteLength":288,
			"byteOffset":690076
		},
		{
			"buffer":0,
			"byteLength":384,
			"byteOffset":690364
		},
		{
			"buffer":0,
			"byteLength":24,
			"byteOffset":690748
		},
		{
			"buffer":0,
			"byteLength":288,
			"byteOffset":690772
		},
		{
			"buffer":0,
			"byteLength":384,
			"byteOffset":691060
		},
		{
			"buffer":0,
			"byteLength":24,
			"byteOffset":691444
		},
		{
			"buffer":0,
			"byteLength":288,
			"byteOffset":691468
		},
		{
			"buffer":0,
			"byteLength":32,
			"byteOffset":691756
		},
		{
			"buffer":0,
			"byteLength":24,
			"byteOffset":691788
		},
		{
			"buffer":0,
			"byteLength":4,
			"byteOffset":691812
		},
		{
			"buffer":0,
			"byteLength":12,
			"byteOffset":691816
		},
		{
			"buffer":0,
			"byteLength":16,
			"byteOffset":691828
		},
		{
			"buffer":0,
			"byteLength":12,
			"byteOffset":691844
		},
		{
			"buffer":0,
			"byteLength":40,
			"byteOffset":691856
		},
		{
			"buffer":0,
			"byteLength":120,
			"byteOffset":691896
		},
		{
			"buffer":0,
			"byteLength":160,
			"byteOffset":692016
		},
		{
			"buffer":0,
			"byteLength":8,
			"byteOffset":692176
		},
		{
			"buffer":0,
			"byteLength":24,
			"byteOffset":692184
		}
	],
	"samplers":[
		{
			"magFilter":9729,
			"minFilter":9987
		},
		{
			"magFilter":9728,
			"minFilter":9984,
			"wrapS":33071,
			"wrapT":33071
		}
	],
	"buffers":[
		{
			"byteLength":692208,
			"uri":"data:application/octet-stream;base64,"
		}
	]
}
