# MagicaVoxel @ Ephtracy

# group
o 

# material
mtllib Head.mtl
usemtl palette

# normals
vn -1 0 0
vn 1 0 0
vn 0 0 1
vn 0 0 -1
vn 0 -1 0
vn 0 1 0

# texcoords
vt 0.900391 0.5
vt 0.935547 0.5
vt 0.990234 0.5
vt 0.994141 0.5

# verts
v -0.8 4.2 0.9
v -0.8 4.2 0.5
v -0.8 4.3 0.8
v -0.8 4.3 0.6
v -0.8 4.6 0.8
v -0.8 4.6 0.6
v -0.8 4.7 0.9
v -0.8 4.7 0.5
v -0.7 4 0.9
v -0.7 4 0.5
v -0.7 4.2 0.9
v -0.7 4.2 0.5
v -0.7 4.7 0.9
v -0.7 4.7 0.5
v -0.7 4.8 0.9
v -0.7 4.8 0.5
v -0.6 3.9 0.9
v -0.6 3.9 0.4
v -0.6 4 1
v -0.6 4 0.9
v -0.6 4 0.5
v -0.6 4 0.4
v -0.6 4 0.3
v -0.6 4.2 0.4
v -0.6 4.2 0.3
v -0.6 4.7 0.4
v -0.6 4.7 0.3
v -0.6 4.8 1
v -0.6 4.8 0.9
v -0.6 4.8 0.5
v -0.6 4.8 0.3
v -0.5 3.8 0.9
v -0.5 3.8 0.5
v -0.5 3.9 1
v -0.5 3.9 0.9
v -0.5 3.9 0.5
v -0.5 4 1.1
v -0.5 4 1
v -0.5 4 0.9
v -0.5 4 0.3
v -0.5 4 0.2
v -0.5 4.2 0.3
v -0.5 4.2 0.2
v -0.5 4.7 0.3
v -0.5 4.7 0.2
v -0.5 4.8 1.1
v -0.5 4.8 1
v -0.5 4.8 0.4
v -0.5 4.8 0.3
v -0.5 4.8 0.2
v -0.5 4.9 1
v -0.5 4.9 0.4
v -0.4 3.8 1
v -0.4 3.8 0.9
v -0.4 3.8 0.5
v -0.4 3.8 0.4
v -0.4 3.9 1.1
v -0.4 3.9 1
v -0.4 3.9 0.9
v -0.4 3.9 0.5
v -0.4 3.9 0.4
v -0.4 3.9 0.3
v -0.4 4 1.2
v -0.4 4 1.1
v -0.4 4 1
v -0.4 4 0.4
v -0.4 4 0.3
v -0.4 4.8 1.2
v -0.4 4.8 1.1
v -0.4 4.8 1
v -0.4 4.8 0.4
v -0.4 4.8 0.3
v -0.4 4.9 1.1
v -0.4 4.9 1
v -0.4 4.9 0.4
v -0.4 4.9 0.3
v -0.4 5 1
v -0.4 5 0.4
v 0.1 3.8 1
v 0.1 3.8 0.9
v 0.1 3.8 0.5
v 0.1 3.8 0.4
v 0.1 3.9 1.1
v 0.1 3.9 1
v 0.1 3.9 0.9
v 0.1 3.9 0.5
v 0.1 3.9 0.4
v 0.1 3.9 0.3
v 0.1 4 1.2
v 0.1 4 1.1
v 0.1 4 1
v 0.1 4 0.4
v 0.1 4 0.3
v 0.1 4.8 1.2
v 0.1 4.8 1.1
v 0.1 4.8 1
v 0.1 4.8 0.4
v 0.1 4.8 0.3
v 0.1 4.9 1.1
v 0.1 4.9 1
v 0.1 4.9 0.4
v 0.1 4.9 0.3
v 0.1 5 1
v 0.1 5 0.4
v 0.2 3.8 0.9
v 0.2 3.8 0.5
v 0.2 3.9 1
v 0.2 3.9 0.9
v 0.2 3.9 0.5
v 0.2 3.9 0.4
v 0.2 4 1.1
v 0.2 4 1
v 0.2 4 0.9
v 0.2 4 0.5
v 0.2 4 0.4
v 0.2 4 0.3
v 0.2 4 0.2
v 0.2 4.2 0.3
v 0.2 4.2 0.2
v 0.2 4.7 0.3
v 0.2 4.7 0.2
v 0.2 4.8 1.1
v 0.2 4.8 1
v 0.2 4.8 0.4
v 0.2 4.8 0.3
v 0.2 4.8 0.2
v 0.2 4.9 1
v 0.2 4.9 0.4
v 0.3 3.9 0.9
v 0.3 3.9 0.5
v 0.3 4 1
v 0.3 4 0.9
v 0.3 4 0.5
v 0.3 4 0.3
v 0.3 4.2 0.4
v 0.3 4.2 0.3
v 0.3 4.7 0.4
v 0.3 4.7 0.3
v 0.3 4.8 1
v 0.3 4.8 0.9
v 0.3 4.8 0.5
v 0.3 4.8 0.3
v 0.4 4 0.9
v 0.4 4 0.5
v 0.4 4.2 0.9
v 0.4 4.2 0.5
v 0.4 4.7 0.9
v 0.4 4.7 0.5
v 0.4 4.8 0.9
v 0.4 4.8 0.5
v 0.5 4.2 0.9
v 0.5 4.2 0.5
v 0.5 4.3 0.8
v 0.5 4.3 0.6
v 0.5 4.6 0.8
v 0.5 4.6 0.6
v 0.5 4.7 0.9
v 0.5 4.7 0.5
v -0.4 4 1.2
v -0.4 4.8 1.2
v 0.1 4 1.2
v 0.1 4.8 1.2
v -0.5 4 1.1
v -0.5 4.8 1.1
v -0.4 3.9 1.1
v -0.4 4 1.1
v -0.4 4.8 1.1
v -0.4 4.9 1.1
v 0.1 3.9 1.1
v 0.1 4 1.1
v 0.1 4.8 1.1
v 0.1 4.9 1.1
v 0.2 4 1.1
v 0.2 4.8 1.1
v -0.6 4 1
v -0.6 4.8 1
v -0.5 3.9 1
v -0.5 4 1
v -0.5 4.8 1
v -0.5 4.9 1
v -0.4 3.8 1
v -0.4 3.9 1
v -0.4 4 1
v -0.4 4.8 1
v -0.4 4.9 1
v -0.4 5 1
v 0.1 3.8 1
v 0.1 3.9 1
v 0.1 4 1
v 0.1 4.8 1
v 0.1 4.9 1
v 0.1 5 1
v 0.2 3.9 1
v 0.2 4 1
v 0.2 4.8 1
v 0.2 4.9 1
v 0.3 4 1
v 0.3 4.8 1
v -0.8 4.2 0.9
v -0.8 4.7 0.9
v -0.7 4 0.9
v -0.7 4.2 0.9
v -0.7 4.7 0.9
v -0.7 4.8 0.9
v -0.6 3.9 0.9
v -0.6 4 0.9
v -0.6 4.8 0.9
v -0.5 3.8 0.9
v -0.5 3.9 0.9
v -0.5 4 0.9
v -0.4 3.8 0.9
v -0.4 3.9 0.9
v 0.1 3.8 0.9
v 0.1 3.9 0.9
v 0.2 3.8 0.9
v 0.2 3.9 0.9
v 0.2 4 0.9
v 0.3 3.9 0.9
v 0.3 4 0.9
v 0.3 4.8 0.9
v 0.4 4 0.9
v 0.4 4.2 0.9
v 0.4 4.7 0.9
v 0.4 4.8 0.9
v 0.5 4.2 0.9
v 0.5 4.7 0.9
v -0.8 4.2 0.5
v -0.8 4.7 0.5
v -0.7 4 0.5
v -0.7 4.2 0.5
v -0.7 4.7 0.5
v -0.7 4.8 0.5
v -0.6 4 0.5
v -0.6 4.8 0.5
v -0.5 3.8 0.5
v -0.5 3.9 0.5
v -0.4 3.8 0.5
v -0.4 3.9 0.5
v 0.1 3.8 0.5
v 0.1 3.9 0.5
v 0.2 3.8 0.5
v 0.2 3.9 0.5
v 0.2 4 0.5
v 0.3 3.9 0.5
v 0.3 4 0.5
v 0.3 4.8 0.5
v 0.4 4 0.5
v 0.4 4.2 0.5
v 0.4 4.7 0.5
v 0.4 4.8 0.5
v 0.5 4.2 0.5
v 0.5 4.7 0.5
v -0.6 3.9 0.4
v -0.6 4 0.4
v -0.5 4.8 0.4
v -0.5 4.9 0.4
v -0.4 3.8 0.4
v -0.4 3.9 0.4
v -0.4 4 0.4
v -0.4 4.8 0.4
v -0.4 4.9 0.4
v -0.4 5 0.4
v 0.1 3.8 0.4
v 0.1 3.9 0.4
v 0.1 4 0.4
v 0.1 4.8 0.4
v 0.1 4.9 0.4
v 0.1 5 0.4
v 0.2 3.9 0.4
v 0.2 4 0.4
v 0.2 4.8 0.4
v 0.2 4.9 0.4
v -0.6 4 0.3
v -0.6 4.2 0.3
v -0.6 4.7 0.3
v -0.6 4.8 0.3
v -0.5 4 0.3
v -0.5 4.2 0.3
v -0.5 4.7 0.3
v -0.5 4.8 0.3
v -0.4 3.9 0.3
v -0.4 4 0.3
v -0.4 4.8 0.3
v -0.4 4.9 0.3
v 0.1 3.9 0.3
v 0.1 4 0.3
v 0.1 4.8 0.3
v 0.1 4.9 0.3
v 0.2 4 0.3
v 0.2 4.2 0.3
v 0.2 4.7 0.3
v 0.2 4.8 0.3
v 0.3 4 0.3
v 0.3 4.2 0.3
v 0.3 4.7 0.3
v 0.3 4.8 0.3
v -0.5 4 0.2
v -0.5 4.2 0.2
v -0.5 4.7 0.2
v -0.5 4.8 0.2
v -0.4 4.3 0.2
v -0.4 4.6 0.2
v -0.3 4.3 0.2
v -0.3 4.6 0.2
v 0 4.3 0.2
v 0 4.6 0.2
v 0.1 4.3 0.2
v 0.1 4.6 0.2
v 0.2 4 0.2
v 0.2 4.2 0.2
v 0.2 4.7 0.2
v 0.2 4.8 0.2
v -0.4 3.8 1
v 0.1 3.8 1
v -0.5 3.8 0.9
v -0.4 3.8 0.9
v 0.1 3.8 0.9
v 0.2 3.8 0.9
v -0.5 3.8 0.5
v -0.4 3.8 0.5
v 0.1 3.8 0.5
v 0.2 3.8 0.5
v -0.4 3.8 0.4
v 0.1 3.8 0.4
v -0.4 3.9 1.1
v 0.1 3.9 1.1
v -0.5 3.9 1
v -0.4 3.9 1
v 0.1 3.9 1
v 0.2 3.9 1
v -0.6 3.9 0.9
v -0.5 3.9 0.9
v -0.4 3.9 0.9
v 0.1 3.9 0.9
v 0.2 3.9 0.9
v 0.3 3.9 0.9
v -0.5 3.9 0.5
v -0.4 3.9 0.5
v 0.1 3.9 0.5
v 0.2 3.9 0.5
v 0.3 3.9 0.5
v -0.6 3.9 0.4
v -0.4 3.9 0.4
v 0.1 3.9 0.4
v 0.2 3.9 0.4
v -0.4 3.9 0.3
v 0.1 3.9 0.3
v -0.4 4 1.2
v 0.1 4 1.2
v -0.5 4 1.1
v -0.4 4 1.1
v 0.1 4 1.1
v 0.2 4 1.1
v -0.6 4 1
v -0.5 4 1
v -0.4 4 1
v 0.1 4 1
v 0.2 4 1
v 0.3 4 1
v -0.7 4 0.9
v -0.6 4 0.9
v -0.5 4 0.9
v 0.2 4 0.9
v 0.3 4 0.9
v 0.4 4 0.9
v -0.7 4 0.5
v -0.6 4 0.5
v 0.2 4 0.5
v 0.3 4 0.5
v 0.4 4 0.5
v -0.6 4 0.4
v -0.4 4 0.4
v 0.1 4 0.4
v 0.2 4 0.4
v -0.6 4 0.3
v -0.5 4 0.3
v -0.4 4 0.3
v 0.1 4 0.3
v 0.2 4 0.3
v 0.3 4 0.3
v -0.5 4 0.2
v 0.2 4 0.2
v -0.8 4.2 0.9
v -0.7 4.2 0.9
v 0.4 4.2 0.9
v 0.5 4.2 0.9
v -0.8 4.2 0.5
v -0.7 4.2 0.5
v 0.4 4.2 0.5
v 0.5 4.2 0.5
v -0.8 4.7 0.9
v -0.7 4.7 0.9
v 0.4 4.7 0.9
v 0.5 4.7 0.9
v -0.8 4.7 0.5
v -0.7 4.7 0.5
v 0.4 4.7 0.5
v 0.5 4.7 0.5
v -0.4 4.8 1.2
v 0.1 4.8 1.2
v -0.5 4.8 1.1
v -0.4 4.8 1.1
v 0.1 4.8 1.1
v 0.2 4.8 1.1
v -0.6 4.8 1
v -0.5 4.8 1
v -0.4 4.8 1
v 0.1 4.8 1
v 0.2 4.8 1
v 0.3 4.8 1
v -0.7 4.8 0.9
v -0.6 4.8 0.9
v 0.3 4.8 0.9
v 0.4 4.8 0.9
v -0.7 4.8 0.5
v -0.6 4.8 0.5
v 0.3 4.8 0.5
v 0.4 4.8 0.5
v -0.5 4.8 0.4
v -0.4 4.8 0.4
v 0.1 4.8 0.4
v 0.2 4.8 0.4
v -0.6 4.8 0.3
v -0.5 4.8 0.3
v -0.4 4.8 0.3
v 0.1 4.8 0.3
v 0.2 4.8 0.3
v 0.3 4.8 0.3
v -0.5 4.8 0.2
v 0.2 4.8 0.2
v -0.4 4.9 1.1
v 0.1 4.9 1.1
v -0.5 4.9 1
v -0.4 4.9 1
v 0.1 4.9 1
v 0.2 4.9 1
v -0.5 4.9 0.4
v -0.4 4.9 0.4
v 0.1 4.9 0.4
v 0.2 4.9 0.4
v -0.4 4.9 0.3
v 0.1 4.9 0.3
v -0.4 5 1
v 0.1 5 1
v -0.4 5 0.4
v 0.1 5 0.4

# faces
f 3/3/1 2/3/1 1/3/1
f 4/3/1 2/3/1 3/3/1
f 5/3/1 3/3/1 1/3/1
f 5/1/1 4/1/1 3/1/1
f 6/3/1 2/3/1 4/3/1
f 6/1/1 4/1/1 5/1/1
f 7/3/1 5/3/1 1/3/1
f 7/3/1 6/3/1 5/3/1
f 8/3/1 2/3/1 6/3/1
f 8/3/1 6/3/1 7/3/1
f 11/2/1 10/2/1 9/2/1
f 12/2/1 10/2/1 11/2/1
f 15/2/1 14/2/1 13/2/1
f 16/2/1 14/2/1 15/2/1
f 20/2/1 18/2/1 17/2/1
f 21/2/1 18/2/1 20/2/1
f 22/2/1 18/2/1 21/2/1
f 24/2/1 23/2/1 22/2/1
f 24/2/1 22/2/1 21/2/1
f 25/2/1 23/2/1 24/2/1
f 26/2/1 24/2/1 21/2/1
f 26/4/1 25/4/1 24/4/1
f 27/4/1 25/4/1 26/4/1
f 28/2/1 20/2/1 19/2/1
f 29/2/1 20/2/1 28/2/1
f 30/2/1 26/2/1 21/2/1
f 30/2/1 27/2/1 26/2/1
f 31/2/1 27/2/1 30/2/1
f 35/2/1 33/2/1 32/2/1
f 36/2/1 33/2/1 35/2/1
f 38/2/1 35/2/1 34/2/1
f 39/2/1 35/2/1 38/2/1
f 42/2/1 41/2/1 40/2/1
f 43/2/1 41/2/1 42/2/1
f 44/4/1 43/4/1 42/4/1
f 45/4/1 43/4/1 44/4/1
f 46/2/1 38/2/1 37/2/1
f 47/2/1 38/2/1 46/2/1
f 49/2/1 45/2/1 44/2/1
f 50/2/1 45/2/1 49/2/1
f 51/2/1 48/2/1 47/2/1
f 52/2/1 48/2/1 51/2/1
f 58/2/1 54/2/1 53/2/1
f 59/2/1 54/2/1 58/2/1
f 60/2/1 56/2/1 55/2/1
f 61/2/1 56/2/1 60/2/1
f 64/2/1 58/2/1 57/2/1
f 65/2/1 58/2/1 64/2/1
f 66/2/1 62/2/1 61/2/1
f 67/2/1 62/2/1 66/2/1
f 68/2/1 64/2/1 63/2/1
f 69/2/1 64/2/1 68/2/1
f 73/2/1 70/2/1 69/2/1
f 74/2/1 70/2/1 73/2/1
f 75/2/1 72/2/1 71/2/1
f 76/2/1 72/2/1 75/2/1
f 77/2/1 75/2/1 74/2/1
f 78/2/1 75/2/1 77/2/1
f 79/2/2 80/2/2 84/2/2
f 84/2/2 80/2/2 85/2/2
f 81/2/2 82/2/2 86/2/2
f 86/2/2 82/2/2 87/2/2
f 83/2/2 84/2/2 90/2/2
f 90/2/2 84/2/2 91/2/2
f 87/2/2 88/2/2 92/2/2
f 92/2/2 88/2/2 93/2/2
f 89/2/2 90/2/2 94/2/2
f 94/2/2 90/2/2 95/2/2
f 95/2/2 96/2/2 99/2/2
f 99/2/2 96/2/2 100/2/2
f 97/2/2 98/2/2 101/2/2
f 101/2/2 98/2/2 102/2/2
f 100/2/2 101/2/2 103/2/2
f 103/2/2 101/2/2 104/2/2
f 105/2/2 106/2/2 108/2/2
f 108/2/2 106/2/2 109/2/2
f 107/2/2 108/2/2 112/2/2
f 112/2/2 108/2/2 113/2/2
f 109/2/2 110/2/2 114/2/2
f 114/2/2 110/2/2 115/2/2
f 116/2/2 117/2/2 118/2/2
f 118/2/2 117/2/2 119/2/2
f 118/4/2 119/4/2 120/4/2
f 120/4/2 119/4/2 121/4/2
f 111/2/2 112/2/2 122/2/2
f 122/2/2 112/2/2 123/2/2
f 120/2/2 121/2/2 125/2/2
f 125/2/2 121/2/2 126/2/2
f 123/2/2 124/2/2 127/2/2
f 127/2/2 124/2/2 128/2/2
f 129/2/2 130/2/2 132/2/2
f 132/2/2 130/2/2 133/2/2
f 133/2/2 134/2/2 135/2/2
f 135/2/2 134/2/2 136/2/2
f 133/2/2 135/2/2 137/2/2
f 135/4/2 136/4/2 137/4/2
f 137/4/2 136/4/2 138/4/2
f 131/2/2 132/2/2 139/2/2
f 139/2/2 132/2/2 140/2/2
f 133/2/2 137/2/2 141/2/2
f 137/2/2 138/2/2 141/2/2
f 141/2/2 138/2/2 142/2/2
f 143/2/2 144/2/2 145/2/2
f 145/2/2 144/2/2 146/2/2
f 147/2/2 148/2/2 149/2/2
f 149/2/2 148/2/2 150/2/2
f 151/3/2 152/3/2 153/3/2
f 153/3/2 152/3/2 154/3/2
f 151/3/2 153/3/2 155/3/2
f 153/1/2 154/1/2 155/1/2
f 154/3/2 152/3/2 156/3/2
f 155/1/2 154/1/2 156/1/2
f 151/3/2 155/3/2 157/3/2
f 155/3/2 156/3/2 157/3/2
f 156/3/2 152/3/2 158/3/2
f 157/3/2 156/3/2 158/3/2
f 161/2/3 160/2/3 159/2/3
f 162/2/3 160/2/3 161/2/3
f 166/2/3 164/2/3 163/2/3
f 167/2/3 164/2/3 166/2/3
f 169/2/3 166/2/3 165/2/3
f 170/2/3 166/2/3 169/2/3
f 171/2/3 168/2/3 167/2/3
f 172/2/3 168/2/3 171/2/3
f 173/2/3 171/2/3 170/2/3
f 174/2/3 171/2/3 173/2/3
f 178/2/3 176/2/3 175/2/3
f 179/2/3 176/2/3 178/2/3
f 182/2/3 178/2/3 177/2/3
f 183/2/3 178/2/3 182/2/3
f 184/2/3 180/2/3 179/2/3
f 185/2/3 180/2/3 184/2/3
f 187/2/3 182/2/3 181/2/3
f 188/2/3 182/2/3 187/2/3
f 191/2/3 186/2/3 185/2/3
f 192/2/3 186/2/3 191/2/3
f 193/2/3 189/2/3 188/2/3
f 194/2/3 189/2/3 193/2/3
f 195/2/3 191/2/3 190/2/3
f 196/2/3 191/2/3 195/2/3
f 197/2/3 195/2/3 194/2/3
f 198/2/3 195/2/3 197/2/3
f 202/3/3 200/3/3 199/3/3
f 203/3/3 200/3/3 202/3/3
f 206/2/3 202/2/3 201/2/3
f 206/2/3 204/2/3 203/2/3
f 206/2/3 203/2/3 202/2/3
f 207/2/3 204/2/3 206/2/3
f 209/2/3 206/2/3 205/2/3
f 210/2/3 206/2/3 209/2/3
f 211/2/3 209/2/3 208/2/3
f 212/2/3 209/2/3 211/2/3
f 215/2/3 214/2/3 213/2/3
f 216/2/3 214/2/3 215/2/3
f 218/2/3 217/2/3 216/2/3
f 219/2/3 217/2/3 218/2/3
f 221/2/3 220/2/3 219/2/3
f 222/2/3 220/2/3 221/2/3
f 223/2/3 220/2/3 222/2/3
f 224/2/3 220/2/3 223/2/3
f 225/3/3 223/3/3 222/3/3
f 226/3/3 223/3/3 225/3/3
f 227/3/4 228/3/4 230/3/4
f 230/3/4 228/3/4 231/3/4
f 229/2/4 230/2/4 233/2/4
f 231/2/4 232/2/4 233/2/4
f 230/2/4 231/2/4 233/2/4
f 233/2/4 232/2/4 234/2/4
f 235/2/4 236/2/4 237/2/4
f 237/2/4 236/2/4 238/2/4
f 239/2/4 240/2/4 241/2/4
f 241/2/4 240/2/4 242/2/4
f 242/2/4 243/2/4 244/2/4
f 244/2/4 243/2/4 245/2/4
f 245/2/4 246/2/4 247/2/4
f 247/2/4 246/2/4 248/2/4
f 248/2/4 246/2/4 249/2/4
f 249/2/4 246/2/4 250/2/4
f 248/3/4 249/3/4 251/3/4
f 251/3/4 249/3/4 252/3/4
f 253/2/4 254/2/4 258/2/4
f 258/2/4 254/2/4 259/2/4
f 255/2/4 256/2/4 260/2/4
f 260/2/4 256/2/4 261/2/4
f 257/2/4 258/2/4 263/2/4
f 263/2/4 258/2/4 264/2/4
f 261/2/4 262/2/4 267/2/4
f 267/2/4 262/2/4 268/2/4
f 264/2/4 265/2/4 269/2/4
f 269/2/4 265/2/4 270/2/4
f 266/2/4 267/2/4 271/2/4
f 271/2/4 267/2/4 272/2/4
f 273/2/4 274/2/4 277/2/4
f 274/4/4 275/4/4 278/4/4
f 277/2/4 274/2/4 278/2/4
f 275/2/4 276/2/4 279/2/4
f 278/4/4 275/4/4 279/4/4
f 279/2/4 276/2/4 280/2/4
f 281/2/4 282/2/4 285/2/4
f 285/2/4 282/2/4 286/2/4
f 283/2/4 284/2/4 287/2/4
f 287/2/4 284/2/4 288/2/4
f 289/2/4 290/2/4 293/2/4
f 290/4/4 291/4/4 294/4/4
f 293/2/4 290/2/4 294/2/4
f 291/2/4 292/2/4 295/2/4
f 294/4/4 291/4/4 295/4/4
f 295/2/4 292/2/4 296/2/4
f 298/4/4 299/4/4 301/4/4
f 301/4/4 299/4/4 302/4/4
f 298/4/4 301/4/4 303/4/4
f 301/1/4 302/1/4 303/1/4
f 302/4/4 299/4/4 304/4/4
f 303/1/4 302/1/4 304/1/4
f 298/4/4 303/4/4 305/4/4
f 303/4/4 304/4/4 305/4/4
f 304/4/4 299/4/4 306/4/4
f 305/4/4 304/4/4 306/4/4
f 298/4/4 305/4/4 307/4/4
f 305/1/4 306/1/4 307/1/4
f 306/4/4 299/4/4 308/4/4
f 307/1/4 306/1/4 308/1/4
f 297/2/4 298/2/4 309/2/4
f 298/4/4 307/4/4 310/4/4
f 309/2/4 298/2/4 310/2/4
f 307/4/4 308/4/4 310/4/4
f 308/4/4 299/4/4 311/4/4
f 310/4/4 308/4/4 311/4/4
f 299/2/4 300/2/4 311/2/4
f 311/2/4 300/2/4 312/2/4
f 316/2/5 314/2/5 313/2/5
f 317/2/5 314/2/5 316/2/5
f 319/2/5 316/2/5 315/2/5
f 319/2/5 318/2/5 317/2/5
f 319/2/5 317/2/5 316/2/5
f 320/2/5 318/2/5 319/2/5
f 321/2/5 318/2/5 320/2/5
f 322/2/5 318/2/5 321/2/5
f 323/2/5 321/2/5 320/2/5
f 324/2/5 321/2/5 323/2/5
f 328/2/5 326/2/5 325/2/5
f 329/2/5 326/2/5 328/2/5
f 332/2/5 328/2/5 327/2/5
f 333/2/5 328/2/5 332/2/5
f 334/2/5 330/2/5 329/2/5
f 335/2/5 330/2/5 334/2/5
f 337/2/5 332/2/5 331/2/5
f 340/2/5 336/2/5 335/2/5
f 341/2/5 336/2/5 340/2/5
f 342/2/5 338/2/5 337/2/5
f 342/2/5 337/2/5 331/2/5
f 343/2/5 338/2/5 342/2/5
f 344/2/5 340/2/5 339/2/5
f 345/2/5 340/2/5 344/2/5
f 346/2/5 344/2/5 343/2/5
f 347/2/5 344/2/5 346/2/5
f 351/2/5 349/2/5 348/2/5
f 352/2/5 349/2/5 351/2/5
f 355/2/5 351/2/5 350/2/5
f 356/2/5 351/2/5 355/2/5
f 357/2/5 353/2/5 352/2/5
f 358/2/5 353/2/5 357/2/5
f 361/2/5 355/2/5 354/2/5
f 362/2/5 355/2/5 361/2/5
f 363/2/5 359/2/5 358/2/5
f 364/2/5 359/2/5 363/2/5
f 366/2/5 361/2/5 360/2/5
f 367/2/5 361/2/5 366/2/5
f 369/2/5 365/2/5 364/2/5
f 370/2/5 365/2/5 369/2/5
f 374/2/5 369/2/5 368/2/5
f 375/2/5 372/2/5 371/2/5
f 376/2/5 372/2/5 375/2/5
f 377/2/5 372/2/5 376/2/5
f 378/2/5 374/2/5 373/2/5
f 379/2/5 369/2/5 374/2/5
f 379/2/5 374/2/5 378/2/5
f 380/2/5 369/2/5 379/2/5
f 381/2/5 377/2/5 376/2/5
f 381/2/5 378/2/5 377/2/5
f 381/2/5 379/2/5 378/2/5
f 382/2/5 379/2/5 381/2/5
f 387/3/5 384/3/5 383/3/5
f 388/3/5 384/3/5 387/3/5
f 389/3/5 386/3/5 385/3/5
f 390/3/5 386/3/5 389/3/5
f 391/3/6 392/3/6 395/3/6
f 395/3/6 392/3/6 396/3/6
f 393/3/6 394/3/6 397/3/6
f 397/3/6 394/3/6 398/3/6
f 399/2/6 400/2/6 402/2/6
f 402/2/6 400/2/6 403/2/6
f 401/2/6 402/2/6 406/2/6
f 406/2/6 402/2/6 407/2/6
f 403/2/6 404/2/6 408/2/6
f 408/2/6 404/2/6 409/2/6
f 405/2/6 406/2/6 412/2/6
f 409/2/6 410/2/6 413/2/6
f 411/2/6 412/2/6 415/2/6
f 412/2/6 406/2/6 416/2/6
f 415/2/6 412/2/6 416/2/6
f 413/2/6 414/2/6 417/2/6
f 409/2/6 413/2/6 417/2/6
f 417/2/6 414/2/6 418/2/6
f 416/2/6 406/2/6 419/2/6
f 409/2/6 417/2/6 422/2/6
f 419/2/6 420/2/6 423/2/6
f 416/2/6 419/2/6 423/2/6
f 423/2/6 420/2/6 424/2/6
f 424/2/6 420/2/6 425/2/6
f 421/2/6 422/2/6 426/2/6
f 422/2/6 417/2/6 427/2/6
f 426/2/6 422/2/6 427/2/6
f 427/2/6 417/2/6 428/2/6
f 424/2/6 425/2/6 429/2/6
f 425/2/6 426/2/6 429/2/6
f 426/2/6 427/2/6 429/2/6
f 429/2/6 427/2/6 430/2/6
f 431/2/6 432/2/6 434/2/6
f 434/2/6 432/2/6 435/2/6
f 433/2/6 434/2/6 437/2/6
f 437/2/6 434/2/6 438/2/6
f 435/2/6 436/2/6 439/2/6
f 439/2/6 436/2/6 440/2/6
f 438/2/6 439/2/6 441/2/6
f 441/2/6 439/2/6 442/2/6
f 443/2/6 444/2/6 445/2/6
f 445/2/6 444/2/6 446/2/6
