# MagicaVoxel @ Ephtracy

# group
o 

# material
mtllib Leg.mtl
usemtl palette

# normals
vn -1 0 0
vn 1 0 0
vn 0 0 1
vn 0 0 -1
vn 0 -1 0
vn 0 1 0

# texcoords
vt 0.931641 0.5
vt 0.935547 0.5
vt 0.994141 0.5

# verts
v -0.9 0 0.9
v -0.9 0 0.4
v -0.9 0.3 0.9
v -0.9 0.3 0.4
v -0.8 0 1
v -0.8 0 0.9
v -0.8 0 0.4
v -0.8 0 0.1
v -0.8 0.2 0.4
v -0.8 0.2 0.1
v -0.8 0.3 1
v -0.8 0.3 0.9
v -0.8 0.3 0.8
v -0.8 0.3 0.6
v -0.8 0.6 0.8
v -0.8 0.6 0.6
v -0.8 0.7 0.8
v -0.8 0.7 0.6
v -0.8 1.1 0.8
v -0.8 1.1 0.6
v -0.8 1.2 0.8
v -0.8 1.2 0.6
v -0.8 1.5 0.8
v -0.8 1.5 0.7
v -0.8 1.6 0.7
v -0.8 1.6 0.6
v -0.7 0.3 0.9
v -0.7 0.3 0.8
v -0.7 0.3 0.6
v -0.7 0.3 0.5
v -0.7 0.6 0.9
v -0.7 0.6 0.8
v -0.7 0.6 0.6
v -0.7 0.6 0.5
v -0.7 0.7 0.9
v -0.7 0.7 0.8
v -0.7 0.7 0.6
v -0.7 0.7 0.5
v -0.7 1.1 0.9
v -0.7 1.1 0.8
v -0.7 1.1 0.6
v -0.7 1.1 0.5
v -0.7 1.2 0.9
v -0.7 1.2 0.8
v -0.7 1.2 0.6
v -0.7 1.2 0.5
v -0.7 1.4 0.9
v -0.7 1.4 0.8
v -0.7 1.6 0.6
v -0.7 1.7 0.6
v -0.7 1.7 0.5
v -0.5 1.4 0.9
v -0.5 1.4 0.8
v -0.5 1.5 0.9
v -0.5 1.5 0.8
v -0.5 0.3 0.9
v -0.5 0.3 0.8
v -0.5 0.3 0.6
v -0.5 0.3 0.5
v -0.5 0.6 0.9
v -0.5 0.6 0.8
v -0.5 0.6 0.6
v -0.5 0.6 0.5
v -0.5 0.7 0.9
v -0.5 0.7 0.8
v -0.5 0.7 0.6
v -0.5 0.7 0.5
v -0.5 1.1 0.9
v -0.5 1.1 0.8
v -0.5 1.1 0.6
v -0.5 1.1 0.5
v -0.5 1.2 0.9
v -0.5 1.2 0.8
v -0.5 1.2 0.6
v -0.5 1.2 0.5
v -0.5 1.3 0.9
v -0.5 1.3 0.8
v -0.5 1.3 0.6
v -0.5 1.3 0.5
v -0.4 0 1
v -0.4 0 0.9
v -0.4 0 0.4
v -0.4 0 0.1
v -0.4 0.2 0.4
v -0.4 0.2 0.1
v -0.4 0.3 1
v -0.4 0.3 0.9
v -0.4 0.3 0.8
v -0.4 0.3 0.6
v -0.4 0.6 0.8
v -0.4 0.6 0.6
v -0.4 0.7 0.8
v -0.4 0.7 0.6
v -0.4 1.1 0.8
v -0.4 1.1 0.6
v -0.4 1.2 0.8
v -0.4 1.2 0.6
v -0.4 1.3 0.9
v -0.4 1.3 0.8
v -0.4 1.3 0.7
v -0.4 1.3 0.6
v -0.4 1.4 0.7
v -0.4 1.5 0.9
v -0.4 1.5 0.8
v -0.4 1.5 0.7
v -0.3 0 0.9
v -0.3 0 0.4
v -0.3 0.3 0.9
v -0.3 0.3 0.4
v -0.3 1.3 0.7
v -0.3 1.3 0.5
v -0.3 1.4 0.7
v -0.3 1.4 0.6
v -0.3 1.6 0.7
v -0.3 1.6 0.6
v -0.3 1.7 0.6
v -0.3 1.7 0.5
v -0.8 0 1
v -0.8 0.3 1
v -0.4 0 1
v -0.4 0.3 1
v -0.9 0 0.9
v -0.9 0.3 0.9
v -0.8 0 0.9
v -0.8 0.3 0.9
v -0.7 0.3 0.9
v -0.7 0.6 0.9
v -0.7 0.7 0.9
v -0.7 1.1 0.9
v -0.7 1.2 0.9
v -0.7 1.4 0.9
v -0.5 0.3 0.9
v -0.5 0.6 0.9
v -0.5 0.7 0.9
v -0.5 1.1 0.9
v -0.5 1.2 0.9
v -0.5 1.3 0.9
v -0.5 1.4 0.9
v -0.5 1.5 0.9
v -0.4 0 0.9
v -0.4 0.3 0.9
v -0.4 1.3 0.9
v -0.4 1.5 0.9
v -0.3 0 0.9
v -0.3 0.3 0.9
v -0.8 0.3 0.8
v -0.8 0.6 0.8
v -0.8 0.7 0.8
v -0.8 1.1 0.8
v -0.8 1.2 0.8
v -0.8 1.5 0.8
v -0.7 0.3 0.8
v -0.7 0.6 0.8
v -0.7 0.7 0.8
v -0.7 1.1 0.8
v -0.7 1.2 0.8
v -0.7 1.4 0.8
v -0.7 1.5 0.8
v -0.5 0.3 0.8
v -0.5 0.6 0.8
v -0.5 0.7 0.8
v -0.5 1.1 0.8
v -0.5 1.2 0.8
v -0.5 1.3 0.8
v -0.5 1.4 0.8
v -0.5 1.5 0.8
v -0.4 0.3 0.8
v -0.4 0.6 0.8
v -0.4 0.7 0.8
v -0.4 1.1 0.8
v -0.4 1.2 0.8
v -0.4 1.3 0.8
v -0.8 1.5 0.7
v -0.8 1.6 0.7
v -0.7 1.5 0.7
v -0.7 1.6 0.7
v -0.4 1.3 0.7
v -0.4 1.4 0.7
v -0.4 1.5 0.7
v -0.3 1.3 0.7
v -0.3 1.4 0.7
v -0.3 1.6 0.7
v -0.7 1.6 0.6
v -0.7 1.7 0.6
v -0.3 1.6 0.6
v -0.3 1.7 0.6
v -0.8 0.3 0.6
v -0.8 0.6 0.6
v -0.8 0.7 0.6
v -0.8 1.1 0.6
v -0.8 1.2 0.6
v -0.8 1.6 0.6
v -0.7 0.3 0.6
v -0.7 0.6 0.6
v -0.7 0.7 0.6
v -0.7 1.1 0.6
v -0.7 1.2 0.6
v -0.7 1.6 0.6
v -0.5 0.3 0.6
v -0.5 0.6 0.6
v -0.5 0.7 0.6
v -0.5 1.1 0.6
v -0.5 1.2 0.6
v -0.5 1.3 0.6
v -0.4 0.3 0.6
v -0.4 0.6 0.6
v -0.4 0.7 0.6
v -0.4 1.1 0.6
v -0.4 1.2 0.6
v -0.4 1.3 0.6
v -0.7 0.3 0.5
v -0.7 0.6 0.5
v -0.7 0.7 0.5
v -0.7 1.1 0.5
v -0.7 1.2 0.5
v -0.7 1.7 0.5
v -0.5 0.3 0.5
v -0.5 0.6 0.5
v -0.5 0.7 0.5
v -0.5 1.1 0.5
v -0.5 1.2 0.5
v -0.5 1.3 0.5
v -0.3 1.3 0.5
v -0.3 1.7 0.5
v -0.9 0 0.4
v -0.9 0.3 0.4
v -0.8 0 0.4
v -0.8 0.2 0.4
v -0.4 0 0.4
v -0.4 0.2 0.4
v -0.3 0 0.4
v -0.3 0.3 0.4
v -0.8 0 0.1
v -0.8 0.2 0.1
v -0.4 0 0.1
v -0.4 0.2 0.1
v -0.8 0 1
v -0.4 0 1
v -0.9 0 0.9
v -0.8 0 0.9
v -0.4 0 0.9
v -0.3 0 0.9
v -0.9 0 0.4
v -0.8 0 0.4
v -0.4 0 0.4
v -0.3 0 0.4
v -0.8 0 0.1
v -0.4 0 0.1
v -0.5 1.3 0.9
v -0.4 1.3 0.9
v -0.5 1.3 0.8
v -0.4 1.3 0.8
v -0.4 1.3 0.7
v -0.3 1.3 0.7
v -0.5 1.3 0.6
v -0.4 1.3 0.6
v -0.5 1.3 0.5
v -0.3 1.3 0.5
v -0.8 0.2 0.4
v -0.4 0.2 0.4
v -0.8 0.2 0.1
v -0.4 0.2 0.1
v -0.8 0.3 1
v -0.4 0.3 1
v -0.9 0.3 0.9
v -0.8 0.3 0.9
v -0.7 0.3 0.9
v -0.5 0.3 0.9
v -0.4 0.3 0.9
v -0.3 0.3 0.9
v -0.8 0.3 0.8
v -0.7 0.3 0.8
v -0.5 0.3 0.8
v -0.4 0.3 0.8
v -0.8 0.3 0.6
v -0.7 0.3 0.6
v -0.5 0.3 0.6
v -0.4 0.3 0.6
v -0.7 0.3 0.5
v -0.5 0.3 0.5
v -0.9 0.3 0.4
v -0.3 0.3 0.4
v -0.7 1.4 0.9
v -0.5 1.4 0.9
v -0.7 1.4 0.8
v -0.5 1.4 0.8
v -0.5 1.5 0.9
v -0.4 1.5 0.9
v -0.8 1.5 0.8
v -0.7 1.5 0.8
v -0.5 1.5 0.8
v -0.4 1.5 0.8
v -0.8 1.5 0.7
v -0.7 1.5 0.7
v -0.4 1.5 0.7
v -0.8 1.6 0.7
v -0.7 1.6 0.7
v -0.3 1.6 0.7
v -0.8 1.6 0.6
v -0.7 1.6 0.6
v -0.3 1.6 0.6
v -0.7 1.7 0.6
v -0.3 1.7 0.6
v -0.7 1.7 0.5
v -0.3 1.7 0.5

# faces
f 3/3/1 2/3/1 1/3/1
f 4/3/1 2/3/1 3/3/1
f 9/3/1 8/3/1 7/3/1
f 10/3/1 8/3/1 9/3/1
f 11/3/1 6/3/1 5/3/1
f 12/3/1 6/3/1 11/3/1
f 15/2/1 14/2/1 13/2/1
f 16/2/1 14/2/1 15/2/1
f 17/3/1 16/3/1 15/3/1
f 18/3/1 16/3/1 17/3/1
f 19/2/1 18/2/1 17/2/1
f 20/2/1 18/2/1 19/2/1
f 21/3/1 20/3/1 19/3/1
f 22/3/1 20/3/1 21/3/1
f 23/2/1 22/2/1 21/2/1
f 24/2/1 22/2/1 23/2/1
f 25/2/1 22/2/1 24/2/1
f 26/2/1 22/2/1 25/2/1
f 31/2/1 28/2/1 27/2/1
f 32/2/1 28/2/1 31/2/1
f 33/2/1 30/2/1 29/2/1
f 34/2/1 30/2/1 33/2/1
f 35/3/1 32/3/1 31/3/1
f 36/3/1 32/3/1 35/3/1
f 37/3/1 34/3/1 33/3/1
f 38/3/1 34/3/1 37/3/1
f 39/2/1 36/2/1 35/2/1
f 40/2/1 36/2/1 39/2/1
f 41/2/1 38/2/1 37/2/1
f 42/2/1 38/2/1 41/2/1
f 43/3/1 40/3/1 39/3/1
f 44/3/1 40/3/1 43/3/1
f 45/3/1 42/3/1 41/3/1
f 46/3/1 42/3/1 45/3/1
f 47/2/1 44/2/1 43/2/1
f 48/2/1 44/2/1 47/2/1
f 49/2/1 46/2/1 45/2/1
f 50/2/1 46/2/1 49/2/1
f 51/2/1 46/2/1 50/2/1
f 54/2/1 53/2/1 52/2/1
f 55/2/1 53/2/1 54/2/1
f 56/2/2 57/2/2 60/2/2
f 60/2/2 57/2/2 61/2/2
f 58/2/2 59/2/2 62/2/2
f 62/2/2 59/2/2 63/2/2
f 60/3/2 61/3/2 64/3/2
f 64/3/2 61/3/2 65/3/2
f 62/3/2 63/3/2 66/3/2
f 66/3/2 63/3/2 67/3/2
f 64/2/2 65/2/2 68/2/2
f 68/2/2 65/2/2 69/2/2
f 66/2/2 67/2/2 70/2/2
f 70/2/2 67/2/2 71/2/2
f 68/3/2 69/3/2 72/3/2
f 72/3/2 69/3/2 73/3/2
f 70/3/2 71/3/2 74/3/2
f 74/3/2 71/3/2 75/3/2
f 72/2/2 73/2/2 76/2/2
f 76/2/2 73/2/2 77/2/2
f 74/2/2 75/2/2 78/2/2
f 78/2/2 75/2/2 79/2/2
f 82/3/2 83/3/2 84/3/2
f 84/3/2 83/3/2 85/3/2
f 80/3/2 81/3/2 86/3/2
f 86/3/2 81/3/2 87/3/2
f 88/2/2 89/2/2 90/2/2
f 90/2/2 89/2/2 91/2/2
f 90/3/2 91/3/2 92/3/2
f 92/3/2 91/3/2 93/3/2
f 92/2/2 93/2/2 94/2/2
f 94/2/2 93/2/2 95/2/2
f 94/3/2 95/3/2 96/3/2
f 96/3/2 95/3/2 97/3/2
f 96/2/2 97/2/2 99/2/2
f 99/2/2 97/2/2 100/2/2
f 100/2/2 97/2/2 101/2/2
f 99/1/2 100/1/2 102/1/2
f 98/2/2 99/2/2 103/2/2
f 99/1/2 102/1/2 104/1/2
f 103/2/2 99/2/2 104/2/2
f 104/1/2 102/1/2 105/1/2
f 106/3/2 107/3/2 108/3/2
f 108/3/2 107/3/2 109/3/2
f 110/2/2 111/2/2 112/2/2
f 112/2/2 111/2/2 113/2/2
f 112/1/2 113/1/2 114/1/2
f 113/2/2 111/2/2 115/2/2
f 114/1/2 113/1/2 115/1/2
f 115/2/2 111/2/2 116/2/2
f 116/2/2 111/2/2 117/2/2
f 120/3/3 119/3/3 118/3/3
f 121/3/3 119/3/3 120/3/3
f 124/3/3 123/3/3 122/3/3
f 125/3/3 123/3/3 124/3/3
f 132/2/3 127/2/3 126/2/3
f 133/3/3 128/3/3 127/3/3
f 133/2/3 127/2/3 132/2/3
f 134/2/3 129/2/3 128/2/3
f 134/3/3 128/3/3 133/3/3
f 135/3/3 130/3/3 129/3/3
f 135/2/3 129/2/3 134/2/3
f 136/2/3 131/2/3 130/2/3
f 136/3/3 130/3/3 135/3/3
f 137/2/3 131/2/3 136/2/3
f 138/2/3 131/2/3 137/2/3
f 142/2/3 139/2/3 138/2/3
f 142/2/3 138/2/3 137/2/3
f 143/2/3 139/2/3 142/2/3
f 144/3/3 141/3/3 140/3/3
f 145/3/3 141/3/3 144/3/3
f 152/2/3 147/2/3 146/2/3
f 153/3/3 148/3/3 147/3/3
f 153/2/3 147/2/3 152/2/3
f 154/2/3 149/2/3 148/2/3
f 154/3/3 148/3/3 153/3/3
f 155/3/3 150/3/3 149/3/3
f 155/2/3 149/2/3 154/2/3
f 156/2/3 151/2/3 150/2/3
f 156/3/3 150/3/3 155/3/3
f 157/2/3 151/2/3 156/2/3
f 158/2/3 151/2/3 157/2/3
f 165/1/3 158/1/3 157/1/3
f 166/1/3 158/1/3 165/1/3
f 167/2/3 160/2/3 159/2/3
f 168/3/3 161/3/3 160/3/3
f 168/2/3 160/2/3 167/2/3
f 169/2/3 162/2/3 161/2/3
f 169/3/3 161/3/3 168/3/3
f 170/3/3 163/3/3 162/3/3
f 170/2/3 162/2/3 169/2/3
f 171/2/3 164/2/3 163/2/3
f 171/3/3 163/3/3 170/3/3
f 172/2/3 164/2/3 171/2/3
f 175/2/3 174/2/3 173/2/3
f 176/2/3 174/2/3 175/2/3
f 179/1/3 176/1/3 175/1/3
f 180/2/3 178/2/3 177/2/3
f 181/1/3 179/1/3 178/1/3
f 181/2/3 178/2/3 180/2/3
f 182/1/3 176/1/3 179/1/3
f 182/1/3 179/1/3 181/1/3
f 185/2/3 184/2/3 183/2/3
f 186/2/3 184/2/3 185/2/3
f 187/2/4 188/2/4 193/2/4
f 188/3/4 189/3/4 194/3/4
f 193/2/4 188/2/4 194/2/4
f 189/2/4 190/2/4 195/2/4
f 194/3/4 189/3/4 195/3/4
f 190/3/4 191/3/4 196/3/4
f 195/2/4 190/2/4 196/2/4
f 191/2/4 192/2/4 197/2/4
f 196/3/4 191/3/4 197/3/4
f 197/2/4 192/2/4 198/2/4
f 199/2/4 200/2/4 205/2/4
f 200/3/4 201/3/4 206/3/4
f 205/2/4 200/2/4 206/2/4
f 201/2/4 202/2/4 207/2/4
f 206/3/4 201/3/4 207/3/4
f 202/3/4 203/3/4 208/3/4
f 207/2/4 202/2/4 208/2/4
f 203/2/4 204/2/4 209/2/4
f 208/3/4 203/3/4 209/3/4
f 209/2/4 204/2/4 210/2/4
f 211/2/4 212/2/4 217/2/4
f 212/3/4 213/3/4 218/3/4
f 217/2/4 212/2/4 218/2/4
f 213/2/4 214/2/4 219/2/4
f 218/3/4 213/3/4 219/3/4
f 214/3/4 215/3/4 220/3/4
f 219/2/4 214/2/4 220/2/4
f 215/2/4 216/2/4 221/2/4
f 220/3/4 215/3/4 221/3/4
f 221/2/4 216/2/4 222/2/4
f 222/2/4 216/2/4 223/2/4
f 223/2/4 216/2/4 224/2/4
f 225/3/4 226/3/4 227/3/4
f 227/3/4 226/3/4 228/3/4
f 228/3/4 226/3/4 230/3/4
f 229/3/4 230/3/4 231/3/4
f 230/3/4 226/3/4 232/3/4
f 231/3/4 230/3/4 232/3/4
f 233/3/4 234/3/4 235/3/4
f 235/3/4 234/3/4 236/3/4
f 240/3/5 238/3/5 237/3/5
f 241/3/5 238/3/5 240/3/5
f 243/3/5 240/3/5 239/3/5
f 243/3/5 242/3/5 241/3/5
f 243/3/5 241/3/5 240/3/5
f 244/3/5 242/3/5 243/3/5
f 245/3/5 242/3/5 244/3/5
f 246/3/5 242/3/5 245/3/5
f 247/3/5 245/3/5 244/3/5
f 248/3/5 245/3/5 247/3/5
f 251/2/5 250/2/5 249/2/5
f 252/2/5 250/2/5 251/2/5
f 256/2/5 254/2/5 253/2/5
f 257/2/5 256/2/5 255/2/5
f 258/2/5 254/2/5 256/2/5
f 258/2/5 256/2/5 257/2/5
f 259/3/6 260/3/6 261/3/6
f 261/3/6 260/3/6 262/3/6
f 263/3/6 264/3/6 266/3/6
f 266/3/6 264/3/6 267/3/6
f 267/3/6 264/3/6 268/3/6
f 268/3/6 264/3/6 269/3/6
f 265/3/6 266/3/6 271/3/6
f 266/3/6 267/3/6 271/3/6
f 271/3/6 267/3/6 272/3/6
f 269/3/6 270/3/6 273/3/6
f 268/3/6 269/3/6 273/3/6
f 273/3/6 270/3/6 274/3/6
f 265/3/6 271/3/6 275/3/6
f 274/3/6 270/3/6 278/3/6
f 275/3/6 276/3/6 279/3/6
f 277/3/6 278/3/6 280/3/6
f 275/3/6 279/3/6 281/3/6
f 279/3/6 280/3/6 281/3/6
f 265/3/6 275/3/6 281/3/6
f 280/3/6 278/3/6 282/3/6
f 281/3/6 280/3/6 282/3/6
f 278/3/6 270/3/6 282/3/6
f 283/2/6 284/2/6 285/2/6
f 285/2/6 284/2/6 286/2/6
f 287/2/6 288/2/6 291/2/6
f 291/2/6 288/2/6 292/2/6
f 289/2/6 290/2/6 293/2/6
f 290/1/6 291/1/6 294/1/6
f 293/2/6 290/2/6 294/2/6
f 291/1/6 292/1/6 294/1/6
f 294/1/6 292/1/6 295/1/6
f 296/2/6 297/2/6 299/2/6
f 297/1/6 298/1/6 300/1/6
f 299/2/6 297/2/6 300/2/6
f 300/1/6 298/1/6 301/1/6
f 302/2/6 303/2/6 304/2/6
f 304/2/6 303/2/6 305/2/6
